<?xml version="1.0" encoding="utf-8"?>
<!-- Generator: Adobe Illustrator 16.0.4, SVG Export Plug-In . SVG Version: 6.00 Build 0)  -->
<!DOCTYPE svg PUBLIC "-//W3C//DTD SVG 1.1//EN" "http://www.w3.org/Graphics/SVG/1.1/DTD/svg11.dtd">
<svg version="1.1" id="Ebene_1" xmlns="http://www.w3.org/2000/svg" xmlns:xlink="http://www.w3.org/1999/xlink"  x="0px" y="0px"
viewBox="0 0 32.875 31" enable-background="new 0 0 32.875 31" xml:space="preserve">
<g>
	<g>
		<path fill="#00AAE5" d="M9.162,16.84c0.764,0,1.383,0.619,1.383,1.383s-0.619,1.382-1.383,1.383c-0.764,0-1.382-0.619-1.382-1.383
			S8.398,16.84,9.162,16.84L9.162,16.84z"/>
	</g>
	<g>
		<path fill="#00AAE5" d="M9.19,21.951c0.63,0,1.141,0.511,1.141,1.141c0.001,0.631-0.511,1.142-1.141,1.142
			S8.05,23.723,8.05,23.092C8.049,22.462,8.561,21.951,9.19,21.951L9.19,21.951z"/>
	</g>
	<g>
		<path fill="#00AAE5" d="M9.173,26.648c0.517,0,0.936,0.419,0.936,0.936c0,0.518-0.419,0.936-0.935,0.936
			c-0.518,0.001-0.937-0.418-0.937-0.935C8.237,27.067,8.656,26.648,9.173,26.648L9.173,26.648z"/>
	</g>
	<g>
		<path fill="#00AAE5" d="M4.383,16.84c0.764,0,1.383,0.619,1.383,1.383s-0.619,1.382-1.383,1.383C3.619,19.605,3,18.986,3,18.223
			S3.619,16.84,4.383,16.84L4.383,16.84z"/>
	</g>
	<g>
		<path fill="#00AAE5" d="M4.393,21.951c0.631,0,1.141,0.511,1.141,1.141c0,0.631-0.51,1.142-1.141,1.142
			c-0.63,0-1.141-0.511-1.141-1.142C3.252,22.462,3.763,21.951,4.393,21.951L4.393,21.951z"/>
	</g>
	<g>
		<path fill="#00AAE5" d="M4.393,26.648c0.518,0,0.936,0.419,0.936,0.936c0,0.518-0.418,0.936-0.936,0.936
			c-0.516,0.001-0.936-0.418-0.936-0.935C3.457,27.067,3.877,26.648,4.393,26.648L4.393,26.648z"/>
	</g>
	<g>
		<path fill="#00AAE5" d="M13.971,21.951c0.63,0,1.141,0.511,1.141,1.141c0,0.631-0.511,1.142-1.141,1.142
			c-0.631,0-1.141-0.511-1.141-1.142C12.829,22.462,13.34,21.951,13.971,21.951L13.971,21.951z"/>
	</g>
	<g>
		<path fill="#00AAE5" d="M13.992,26.648c0.516,0,0.936,0.419,0.936,0.936c0,0.518-0.419,0.936-0.936,0.936
			c-0.518,0.001-0.936-0.418-0.936-0.935C13.057,27.067,13.475,26.648,13.992,26.648L13.992,26.648z"/>
	</g>
	<g>
		<path fill="#00AAE5" d="M18.771,21.951c0.63,0,1.141,0.511,1.141,1.141c0,0.631-0.511,1.142-1.141,1.142s-1.141-0.511-1.141-1.142
			C17.631,22.462,18.142,21.951,18.771,21.951L18.771,21.951z"/>
	</g>
	<g>
		<path fill="#00AAE5" d="M18.765,26.648c0.517,0,0.936,0.419,0.936,0.936c0,0.518-0.419,0.936-0.936,0.936
			c-0.517,0.001-0.936-0.418-0.936-0.935C17.829,27.067,18.248,26.648,18.765,26.648L18.765,26.648z"/>
	</g>
	<g>
		<path fill="#00AAE5" d="M23.559,21.951c0.63,0,1.141,0.511,1.141,1.141c0,0.631-0.511,1.142-1.141,1.142s-1.141-0.511-1.141-1.142
			C22.418,22.462,22.929,21.951,23.559,21.951L23.559,21.951z"/>
	</g>
	<g>
		<path fill="#00AAE5" d="M23.544,26.648c0.518,0,0.937,0.419,0.937,0.936c0,0.518-0.419,0.936-0.936,0.936
			c-0.517,0.001-0.936-0.418-0.936-0.935C22.609,27.067,23.027,26.648,23.544,26.648L23.544,26.648z"/>
	</g>
	<g>
		<path fill="#00AAE5" d="M28.349,21.951c0.631,0,1.142,0.511,1.142,1.141c0,0.631-0.511,1.142-1.142,1.142
			c-0.63,0-1.141-0.511-1.141-1.142C27.208,22.462,27.719,21.951,28.349,21.951L28.349,21.951z"/>
	</g>
	<g>
		<path fill="#00AAE5" d="M28.356,26.664c0.517,0,0.936,0.419,0.936,0.936s-0.419,0.936-0.936,0.936s-0.936-0.419-0.936-0.936
			S27.84,26.664,28.356,26.664L28.356,26.664z"/>
	</g>
	<g>
		<path fill="#EE2E27" d="M23.549,14.193c-0.764,0-1.382-0.619-1.382-1.383c-0.001-0.764,0.618-1.382,1.382-1.383
			c0.764,0,1.383,0.619,1.383,1.383S24.312,14.193,23.549,14.193L23.549,14.193z"/>
	</g>
	<g>
		<path fill="#EE2E27" d="M23.521,9.083c-0.63,0-1.141-0.511-1.142-1.141c0-0.63,0.511-1.142,1.142-1.142
			c0.63,0,1.141,0.512,1.141,1.141C24.662,8.572,24.151,9.083,23.521,9.083L23.521,9.083z"/>
	</g>
	<g>
		<path fill="#EE2E27" d="M23.537,4.385c-0.517,0-0.936-0.418-0.936-0.936c0-0.516,0.419-0.936,0.936-0.936s0.936,0.419,0.936,0.936
			C24.473,3.967,24.055,4.385,23.537,4.385L23.537,4.385z"/>
	</g>
	<g>
		<path fill="#EE2E27" d="M28.326,14.193c-0.764,0-1.383-0.619-1.383-1.383s0.619-1.382,1.382-1.383
			c0.764,0,1.383,0.619,1.383,1.383S29.089,14.193,28.326,14.193L28.326,14.193z"/>
	</g>
	<g>
		<path fill="#EE2E27" d="M28.315,9.083c-0.63,0-1.141-0.511-1.141-1.141s0.511-1.142,1.141-1.142s1.141,0.512,1.141,1.141
			C29.456,8.572,28.945,9.083,28.315,9.083L28.315,9.083z"/>
	</g>
	<g>
		<path fill="#EE2E27" d="M28.317,4.385c-0.517,0-0.936-0.418-0.936-0.936c0-0.516,0.419-0.936,0.936-0.936s0.936,0.419,0.936,0.936
			C29.253,3.967,28.834,4.385,28.317,4.385L28.317,4.385z"/>
	</g>
	<g>
		<path fill="#EE2E27" d="M18.725,14.193c-0.763,0-1.382-0.619-1.382-1.383s0.618-1.382,1.382-1.383
			c0.764,0,1.383,0.619,1.383,1.383S19.488,14.193,18.725,14.193L18.725,14.193z"/>
	</g>
	<g>
		<path fill="#EE2E27" d="M18.741,9.083c-0.63,0-1.141-0.511-1.141-1.141s0.511-1.142,1.141-1.142s1.141,0.512,1.142,1.141
			C19.883,8.572,19.372,9.083,18.741,9.083L18.741,9.083z"/>
	</g>
	<g>
		<path fill="#EE2E27" d="M18.719,4.385c-0.517,0-0.936-0.418-0.936-0.936c0-0.516,0.418-0.936,0.936-0.936
			c0.517,0,0.936,0.419,0.936,0.936C19.654,3.967,19.235,4.385,18.719,4.385L18.719,4.385z"/>
	</g>
	<g>
		<path fill="#EE2E27" d="M13.965,14.193c-0.764,0-1.383-0.619-1.383-1.383s0.619-1.382,1.383-1.383
			c0.764,0,1.383,0.619,1.383,1.383S14.729,14.193,13.965,14.193L13.965,14.193z"/>
	</g>
	<g>
		<path fill="#EE2E27" d="M13.94,9.083c-0.63,0-1.141-0.511-1.141-1.141s0.511-1.142,1.141-1.142s1.142,0.512,1.142,1.141
			C15.082,8.572,14.57,9.083,13.94,9.083L13.94,9.083z"/>
	</g>
	<g>
		<path fill="#EE2E27" d="M13.945,4.385c-0.517,0-0.936-0.418-0.936-0.936c0-0.516,0.419-0.936,0.936-0.936
			c0.518,0,0.936,0.419,0.936,0.936C14.881,3.967,14.463,4.385,13.945,4.385L13.945,4.385z"/>
	</g>
	<g>
		<path fill="#EE2E27" d="M9.186,14.193c-0.764,0-1.383-0.618-1.383-1.382c0-0.763,0.619-1.382,1.383-1.382s1.383,0.618,1.383,1.382
			C10.568,13.574,9.949,14.193,9.186,14.193L9.186,14.193z"/>
	</g>
	<g>
		<path fill="#EE2E27" d="M9.15,9.083c-0.631,0-1.142-0.511-1.142-1.141S8.52,6.801,9.15,6.801c0.629,0,1.141,0.512,1.141,1.141
			C10.291,8.572,9.78,9.083,9.15,9.083L9.15,9.083z"/>
	</g>
	<g>
		<path fill="#EE2E27" d="M9.166,4.385c-0.518,0-0.936-0.418-0.936-0.936c0-0.516,0.418-0.936,0.936-0.936
			c0.517,0,0.936,0.419,0.936,0.936C10.102,3.967,9.683,4.385,9.166,4.385L9.166,4.385z"/>
	</g>
	<g>
		<path fill="#EE2E27" d="M4.387,11.398c0.764,0,1.383,0.619,1.383,1.383s-0.619,1.382-1.383,1.382
			c-0.764,0.001-1.383-0.618-1.383-1.382S3.623,11.398,4.387,11.398L4.387,11.398z"/>
	</g>
	<g>
		<path fill="#EE2E27" d="M4.363,9.083c-0.631,0-1.142-0.511-1.142-1.141s0.511-1.142,1.142-1.142c0.629,0,1.141,0.512,1.141,1.141
			C5.504,8.572,4.993,9.083,4.363,9.083L4.363,9.083z"/>
	</g>
	<g>
		<path fill="#EE2E27" d="M4.354,4.371c-0.516,0-0.936-0.419-0.936-0.936S3.838,2.5,4.354,2.5c0.518,0,0.936,0.418,0.936,0.936
			C5.289,3.952,4.871,4.371,4.354,4.371L4.354,4.371z"/>
	</g>
	<g>
		<polygon fill="#5F6062" points="13.275,19.778 15.215,19.778 15.215,19.342 13.77,19.342 13.77,16.323 13.275,16.323 
			13.275,19.778 		"/>
	</g>
	<g>
		<path fill="#5F6062" d="M15.339,19.902h-2.188v-3.703h0.742v3.019h1.445V19.902z M13.399,19.654h1.691v-0.188h-1.445v-3.019
			h-0.246V19.654z"/>
	</g>
	<g>
		<path fill="#5F6062" d="M20.233,16.412c-0.248-0.109-0.51-0.148-0.777-0.148c-1.055,0-1.827,0.707-1.827,1.771
			c0,1.1,0.728,1.802,1.822,1.802c0.203,0,0.524-0.015,0.787-0.123l-0.03-0.48c-0.173,0.104-0.505,0.168-0.752,0.168
			c-0.718,0-1.302-0.539-1.302-1.351c0-0.777,0.529-1.352,1.326-1.352c0.253,0,0.495,0.064,0.713,0.193L20.233,16.412L20.233,16.412
			z"/>
	</g>
	<g>
		<path fill="#5F6062" d="M19.451,19.961c-1.164,0-1.946-0.774-1.946-1.926c0-1.116,0.802-1.896,1.951-1.896
			c0.314,0,0.585,0.052,0.827,0.159l0.081,0.036L20.3,17.1L20.13,17c-0.198-0.117-0.416-0.176-0.65-0.176
			c-0.708,0-1.202,0.505-1.202,1.228c0,0.711,0.495,1.227,1.178,1.227c0.245,0,0.547-0.066,0.688-0.15l0.174-0.104l0.049,0.772
			l-0.082,0.034C20.07,19.917,19.797,19.961,19.451,19.961z M19.456,16.388c-1.003,0-1.703,0.677-1.703,1.647
			c0,1.019,0.667,1.678,1.698,1.678c0.264,0,0.485-0.028,0.658-0.083l-0.013-0.21c-0.2,0.07-0.451,0.106-0.64,0.106
			c-0.813,0-1.426-0.634-1.426-1.475c0-0.869,0.596-1.476,1.45-1.476c0.213,0,0.416,0.042,0.604,0.123l0.017-0.206
			C19.912,16.422,19.7,16.388,19.456,16.388z"/>
	</g>
	<g>
		<path fill="#5F6062" d="M24.527,16.387c-0.237-0.084-0.51-0.123-0.737-0.123c-0.624,0-1.108,0.326-1.108,0.94
			c0,1.074,1.484,0.861,1.484,1.633c0,0.406-0.396,0.564-0.678,0.564c-0.253,0-0.55-0.099-0.718-0.168l-0.05,0.46
			c0.228,0.074,0.466,0.144,0.708,0.144c0.693,0,1.263-0.292,1.263-1.029c0-1.139-1.485-0.985-1.485-1.648
			c0-0.361,0.326-0.46,0.604-0.46c0.258,0,0.396,0.044,0.648,0.144L24.527,16.387L24.527,16.387z"/>
	</g>
	<g>
		<path fill="#5F6062" d="M23.429,19.961c-0.266,0-0.524-0.077-0.747-0.15l-0.096-0.031l0.079-0.725l0.153,0.063
			c0.09,0.037,0.405,0.159,0.67,0.159c0.154,0,0.554-0.079,0.554-0.44c0-0.262-0.22-0.378-0.579-0.547
			c-0.403-0.189-0.905-0.425-0.905-1.085c0-0.646,0.484-1.064,1.232-1.064c0.261,0,0.545,0.047,0.779,0.13l0.097,0.034l-0.108,0.711
			l-0.145-0.057c-0.243-0.096-0.365-0.135-0.603-0.135c-0.219,0-0.479,0.058-0.479,0.336c0,0.199,0.199,0.305,0.524,0.461
			c0.428,0.207,0.961,0.463,0.961,1.187C24.815,19.53,24.297,19.961,23.429,19.961z M22.855,19.606
			c0.18,0.056,0.38,0.107,0.574,0.107c0.425,0,1.139-0.118,1.139-0.905c0-0.568-0.417-0.769-0.821-0.963
			c-0.327-0.158-0.664-0.32-0.664-0.685c0-0.36,0.279-0.584,0.728-0.584c0.223,0,0.366,0.031,0.549,0.097l0.03-0.2
			c-0.187-0.055-0.4-0.085-0.599-0.085c-0.476,0-0.984,0.214-0.984,0.816c0,0.503,0.371,0.677,0.763,0.861
			c0.355,0.167,0.722,0.339,0.722,0.772c0,0.452-0.403,0.688-0.802,0.688c-0.217,0-0.45-0.064-0.612-0.12L22.855,19.606z"/>
	</g>
	<g>
		<path fill="#5F6062" d="M27.402,19.778h0.92c0.703,0,1.317-0.179,1.317-0.921c0-0.485-0.332-0.792-0.802-0.832v-0.01
			c0.436-0.108,0.713-0.347,0.713-0.821c0-0.639-0.495-0.871-1.213-0.871h-0.936V19.778L27.402,19.778z M27.897,18.204h0.321
			c0.426,0,0.896,0.074,0.896,0.608c0,0.466-0.4,0.56-0.846,0.56h-0.371V18.204L27.897,18.204z M27.897,16.729h0.52
			c0.287,0,0.639,0.104,0.639,0.515c0,0.51-0.406,0.555-0.887,0.555h-0.271V16.729L27.897,16.729z"/>
	</g>
	<g>
		<path fill="#5F6062" d="M28.322,19.902h-1.044v-3.703h1.06c1.105,0,1.337,0.541,1.337,0.995c0,0.365-0.15,0.634-0.447,0.803
			c0.334,0.151,0.536,0.461,0.536,0.86C29.764,19.551,29.279,19.902,28.322,19.902z M27.526,19.654h0.796
			c0.825,0,1.193-0.246,1.193-0.797c0-0.401-0.264-0.672-0.688-0.708l-0.089-0.008c0.257,0.079,0.5,0.259,0.5,0.671
			c0,0.684-0.73,0.684-0.97,0.684h-0.495V18.08h0.445c0.106,0,0.303,0,0.495,0.054v-0.206l0.094-0.033
			c0.428-0.107,0.619-0.323,0.619-0.701c0-0.185,0-0.747-1.089-0.747h-0.812V19.654z M28.021,19.248h0.247
			c0.634,0,0.722-0.209,0.722-0.436c0-0.344-0.224-0.484-0.771-0.484h-0.197V19.248z M28.169,17.922h-0.396v-1.317h0.644
			c0.478,0,0.763,0.239,0.763,0.639C29.18,17.922,28.547,17.922,28.169,17.922z M28.021,17.674h0.147
			c0.592,0,0.763-0.097,0.763-0.431c0-0.323-0.28-0.391-0.515-0.391h-0.396V17.674z"/>
	</g>
</g>
</svg>
