<?xml version="1.0" encoding="UTF-8" standalone="no"?>
<svg
   id="Logos"
   version="1.2"
   viewBox="0 0 179.22 125.73"
   width="179.22"
   height="125.73"
   xmlns="http://www.w3.org/2000/svg"
   xmlns:svg="http://www.w3.org/2000/svg">
  <defs
     id="defs12" />
  <!-- Generator: Adobe Illustrator 30.1.0, SVG Export Plug-In . SVG Version: 2.1.1 Build 136)  -->
  <g
     id="g4"
     transform="translate(0,38.695228)">
    <path
       d="m 46.88,41.06 c -0.14,-0.14 -0.2,-0.3 -0.2,-0.5 V 1.17 c 0,-0.19 0.07,-0.36 0.2,-0.5 0.13,-0.14 0.3,-0.21 0.5,-0.21 h 6.82 c 0.19,0 0.36,0.07 0.5,0.21 0.14,0.14 0.2,0.3 0.2,0.5 v 32.75 c 0,0.19 0.1,0.29 0.29,0.29 h 19.06 c 0.19,0 0.36,0.07 0.5,0.2 0.14,0.14 0.2,0.3 0.2,0.5 v 5.65 c 0,0.19 -0.07,0.36 -0.2,0.5 -0.14,0.14 -0.3,0.21 -0.5,0.21 H 47.38 c -0.19,0 -0.36,-0.07 -0.5,-0.21 z"
       fill="#ffffff"
       id="path1" />
    <path
       d="m 85.85,39.95 c -2.29,-1.19 -4.06,-2.84 -5.3,-4.98 -1.24,-2.14 -1.86,-4.61 -1.86,-7.4 V 14.11 c 0,-2.8 0.62,-5.27 1.86,-7.4 1.24,-2.14 3.01,-3.79 5.3,-4.96 C 88.14,0.59 90.81,0 93.84,0 c 3.03,0 5.62,0.55 7.9,1.66 2.27,1.1 4.04,2.68 5.3,4.72 1.26,2.04 1.89,4.4 1.89,7.08 0,0.35 -0.23,0.57 -0.7,0.64 l -6.82,0.41 h -0.11 c -0.39,0 -0.58,-0.21 -0.58,-0.64 0,-2.06 -0.63,-3.71 -1.89,-4.95 -1.27,-1.24 -2.92,-1.86 -4.98,-1.86 -2.06,0 -3.78,0.62 -5.04,1.86 -1.27,1.24 -1.9,2.9 -1.9,4.95 v 14.05 c 0,2.02 0.63,3.65 1.9,4.9 1.26,1.24 2.94,1.86 5.04,1.86 2.1,0 3.72,-0.62 4.98,-1.86 1.26,-1.24 1.89,-2.88 1.89,-4.9 0,-0.43 0.23,-0.64 0.7,-0.64 l 6.82,0.29 c 0.19,0 0.36,0.06 0.5,0.18 0.14,0.11 0.2,0.25 0.2,0.41 0,2.68 -0.63,5.05 -1.89,7.11 -1.26,2.06 -3.03,3.65 -5.3,4.78 -2.28,1.13 -4.91,1.69 -7.9,1.69 -2.99,0 -5.7,-0.59 -7.99,-1.78 v 0 z"
       fill="#ffffff"
       id="path2" />
    <path
       d="m 120.71,40.25 c -2.33,-0.99 -4.13,-2.41 -5.39,-4.26 -1.26,-1.85 -1.89,-3.99 -1.89,-6.44 v -1.28 c 0,-0.19 0.07,-0.36 0.21,-0.5 0.14,-0.14 0.3,-0.21 0.5,-0.21 h 6.64 c 0.19,0 0.36,0.07 0.5,0.21 0.14,0.14 0.21,0.3 0.21,0.5 v 0.87 c 0,1.56 0.72,2.87 2.16,3.93 1.43,1.07 3.38,1.6 5.83,1.6 2.06,0 3.59,-0.44 4.61,-1.31 1.01,-0.87 1.52,-1.95 1.52,-3.23 0,-0.93 -0.31,-1.72 -0.93,-2.36 -0.62,-0.64 -1.47,-1.2 -2.54,-1.69 -1.07,-0.48 -2.77,-1.16 -5.1,-2.01 -2.61,-0.89 -4.81,-1.81 -6.62,-2.74 -1.81,-0.93 -3.32,-2.2 -4.55,-3.82 -1.22,-1.61 -1.83,-3.6 -1.83,-5.97 0,-2.37 0.6,-4.37 1.81,-6.12 1.2,-1.75 2.88,-3.09 5.01,-4.02 2.14,-0.93 4.61,-1.4 7.41,-1.4 2.95,0 5.59,0.52 7.9,1.57 2.31,1.05 4.12,2.52 5.42,4.4 1.3,1.89 1.95,4.07 1.95,6.56 v 0.87 c 0,0.19 -0.07,0.36 -0.21,0.5 -0.14,0.14 -0.3,0.21 -0.5,0.21 h -6.7 c -0.19,0 -0.36,-0.07 -0.5,-0.21 -0.14,-0.14 -0.21,-0.3 -0.21,-0.5 v -0.47 c 0,-1.63 -0.67,-3.02 -2.01,-4.17 -1.34,-1.14 -3.17,-1.72 -5.51,-1.72 -1.83,0 -3.25,0.39 -4.28,1.17 -1.03,0.78 -1.54,1.85 -1.54,3.2 0,0.97 0.3,1.79 0.9,2.45 0.6,0.66 1.5,1.25 2.68,1.78 1.18,0.53 3.02,1.23 5.51,2.13 2.76,1.01 4.92,1.9 6.5,2.68 1.58,0.78 2.99,1.93 4.25,3.47 1.26,1.54 1.9,3.53 1.9,5.97 0,3.65 -1.34,6.54 -4.02,8.66 -2.68,2.12 -6.32,3.18 -10.9,3.18 -3.11,0 -5.83,-0.5 -8.16,-1.49 h -0.03 z"
       fill="#ffffff"
       id="path3" />
    <path
       d="m 173.69,20.34 c 3.69,1.9 5.54,5.07 5.54,9.5 0,3.77 -1.28,6.61 -3.85,8.54 -2.57,1.93 -5.93,2.89 -10.08,2.89 h -15.1 c -0.19,0 -0.36,-0.07 -0.5,-0.21 -0.14,-0.14 -0.21,-0.3 -0.21,-0.5 V 1.17 c 0,-0.19 0.07,-0.36 0.21,-0.5 0.14,-0.14 0.3,-0.21 0.5,-0.21 h 14.63 c 9.21,0 13.81,3.73 13.81,11.19 0,3.89 -1.65,6.66 -4.95,8.33 -0.23,0.12 -0.23,0.23 0,0.35 v 0 z M 157.72,7.81 v 9.09 c 0,0.19 0.1,0.29 0.29,0.29 h 6.82 c 1.82,0 3.24,-0.43 4.25,-1.28 1.01,-0.85 1.52,-2.02 1.52,-3.5 0,-1.48 -0.51,-2.71 -1.52,-3.59 -1.01,-0.87 -2.43,-1.31 -4.25,-1.31 h -6.82 c -0.19,0 -0.29,0.1 -0.29,0.29 v 0 z m 11.77,24.98 c 1.01,-0.91 1.52,-2.17 1.52,-3.76 0,-1.59 -0.5,-2.84 -1.52,-3.76 -1.01,-0.91 -2.43,-1.37 -4.25,-1.37 h -7.23 c -0.19,0 -0.29,0.1 -0.29,0.29 v 9.67 c 0,0.2 0.1,0.29 0.29,0.29 h 7.29 c 1.79,0 3.19,-0.46 4.19,-1.37 v 0 z"
       fill="#ffffff"
       id="path4" />
  </g>
  <path
     d="m 3.15,41.275228 v 0 c 1.74,0 3.15,1.41 3.15,3.15 v 0 c 0,1.74 -1.41,3.15 -3.15,3.15 v 0 c -1.74,0 -3.15,-1.41 -3.15,-3.15 v 0 c 0,-1.74 1.41,-3.15 3.15,-3.15 z"
     fill="#ffffff"
     id="path5" />
  <rect
     x="11.81"
     y="40.435226"
     width="7.98"
     height="7.98"
     rx="3.99"
     ry="3.99"
     fill="#ffffff"
     id="rect5" />
  <path
     d="m 3.15,56.415228 v 0 c 1.74,0 3.15,1.41 3.15,3.15 v 0 c 0,1.74 -1.41,3.15 -3.15,3.15 v 0 c -1.74,0 -3.15,-1.41 -3.15,-3.15 v 0 c 0,-1.74 1.41,-3.15 3.15,-3.15 z"
     fill="#ffffff"
     id="path6" />
  <path
     d="m 15.8,55.575228 v 0 c 2.2,0 3.99,1.79 3.99,3.99 v 0 c 0,2.2 -1.79,3.99 -3.99,3.99 v 0 c -2.2,0 -3.99,-1.79 -3.99,-3.99 v 0 c 0,-2.2 1.79,-3.99 3.99,-3.99 z"
     fill="#ffffff"
     id="path7" />
  <path
     d="m 3.15,71.555228 v 0 c 1.74,0 3.15,1.41 3.15,3.15 v 0 c 0,1.74 -1.41,3.15 -3.15,3.15 v 0 c -1.74,0 -3.15,-1.41 -3.15,-3.15 v 0 c 0,-1.74 1.41,-3.15 3.15,-3.15 z"
     fill="#ffffff"
     id="path8" />
  <path
     d="m 15.8,70.715228 v 0 c 2.2,0 3.99,1.79 3.99,3.99 v 0 c 0,2.2 -1.79,3.99 -3.99,3.99 v 0 c -2.2,0 -3.99,-1.79 -3.99,-3.99 v 0 c 0,-2.2 1.79,-3.99 3.99,-3.99 z"
     fill="#ffffff"
     id="path9" />
  <path
     d="m 30.56,39.165228 v 0 c 2.91,0 5.26,2.35 5.26,5.26 v 0 c 0,2.91 -2.35,5.26 -5.26,5.26 v 0 c -2.91,0 -5.26,-2.35 -5.26,-5.26 v 0 c 0,-2.91 2.35,-5.26 5.26,-5.26 z"
     fill="#ffffff"
     id="path10" />
  <path
     d="m 30.56,54.305228 v 0 c 2.91,0 5.26,2.35 5.26,5.26 v 0 c 0,2.91 -2.35,5.26 -5.26,5.26 v 0 c -2.91,0 -5.26,-2.35 -5.26,-5.26 v 0 c 0,-2.91 2.35,-5.26 5.26,-5.26 z"
     fill="#ffffff"
     id="path11" />
  <path
     d="m 30.56,69.445228 v 0 c 2.91,0 5.26,2.35 5.26,5.26 v 0 c 0,2.91 -2.35,5.26 -5.26,5.26 v 0 c -2.91,0 -5.26,-2.35 -5.26,-5.26 v 0 c 0,-2.91 2.35,-5.26 5.26,-5.26 z"
     fill="#ffffff"
     id="path12" />
</svg>
