<?xml version="1.0" encoding="UTF-8" standalone="no"?>
<!-- Created with Inkscape (http://www.inkscape.org/) -->

<svg
   version="1.1"
   id="svg1"
   width="119.45333"
   height="71.32"
   viewBox="0 0 119.45333 71.32"
   sodipodi:docname="UNI_Logo_cmyk_white.eps"
   xmlns:inkscape="http://www.inkscape.org/namespaces/inkscape"
   xmlns:sodipodi="http://sodipodi.sourceforge.net/DTD/sodipodi-0.dtd"
   xmlns="http://www.w3.org/2000/svg"
   xmlns:svg="http://www.w3.org/2000/svg">
  <defs
     id="defs1" />
  <sodipodi:namedview
     id="namedview1"
     pagecolor="#ffffff"
     bordercolor="#000000"
     borderopacity="0.25"
     inkscape:showpageshadow="2"
     inkscape:pageopacity="0.0"
     inkscape:pagecheckerboard="0"
     inkscape:deskcolor="#d1d1d1">
    <inkscape:page
       x="0"
       y="0"
       inkscape:label="1"
       id="page1"
       width="119.45333"
       height="71.32"
       margin="0"
       bleed="0" />
  </sodipodi:namedview>
  <g
     id="g1"
     inkscape:groupmode="layer"
     inkscape:label="1">
    <g
       id="group-R5">
      <path
         id="path2"
         d="m 73.6289,129.738 v 0 C 32.9648,129.738 0,162.695 0,203.363 v 184.059 c 0,20.316 16.4883,36.805 36.8203,36.805 20.3203,0 36.8086,-16.489 36.8086,-36.805 V 129.738"
         style="fill:#ffffff;fill-opacity:1;fill-rule:nonzero;stroke:none"
         transform="matrix(0.13333333,0,0,-0.13333333,0,71.32)" />
      <path
         id="path3"
         d="m 797.617,129.738 v 0 c -40.664,0 -73.629,32.957 -73.629,73.625 v 184.059 c 0,20.316 16.489,36.805 36.821,36.805 20.32,0 36.808,-16.489 36.808,-36.805 V 129.738"
         style="fill:#ffffff;fill-opacity:1;fill-rule:nonzero;stroke:none"
         transform="matrix(0.13333333,0,0,-0.13333333,0,71.32)" />
      <path
         id="path4"
         d="m 343.594,129.738 v 0 c -20.332,0 -36.809,16.481 -36.809,36.805 v 257.684 c 40.656,0 73.617,-32.965 73.617,-73.625 V 166.543 c 0,-20.324 -16.476,-36.805 -36.808,-36.805"
         style="fill:#ffffff;fill-opacity:1;fill-rule:nonzero;stroke:none"
         transform="matrix(0.13333333,0,0,-0.13333333,0,71.32)" />
      <path
         id="path5"
         d="m 650.375,129.738 v 0 c -20.332,0 -36.809,16.481 -36.809,36.805 v 331.496 c 0,20.332 16.477,36.813 36.809,36.813 20.328,0 36.805,-16.481 36.805,-36.813 V 166.543 c 0,-20.324 -16.477,-36.805 -36.805,-36.805"
         style="fill:#ffffff;fill-opacity:1;fill-rule:nonzero;stroke:none"
         transform="matrix(0.13333333,0,0,-0.13333333,0,71.32)" />
      <path
         id="path6"
         d="m 454.035,129.738 v 0 c -20.332,0 -36.805,16.481 -36.805,36.805 v 220.879 c 0,20.316 16.473,36.805 36.805,36.805 20.332,0 36.809,-16.489 36.809,-36.805 V 166.543 c 0,-20.324 -16.477,-36.805 -36.809,-36.805"
         style="fill:#ffffff;fill-opacity:1;fill-rule:nonzero;stroke:none"
         transform="matrix(0.13333333,0,0,-0.13333333,0,71.32)" />
      <path
         id="path7"
         d="m 552.203,129.738 v 0 c -20.242,0 -36.808,16.555 -36.808,36.805 0,20.242 16.566,36.82 36.808,36.82 20.246,0 36.809,-16.578 36.809,-36.82 0,-20.25 -16.563,-36.805 -36.809,-36.805"
         style="fill:#ffffff;fill-opacity:1;fill-rule:nonzero;stroke:none"
         transform="matrix(0.13333333,0,0,-0.13333333,0,71.32)" />
      <path
         id="path8"
         d="m 880.555,138.75 c 4.851,-5.145 10.117,-8.82 15.226,-8.82 v 256.125 c 0,20.164 -15.527,37.742 -35.679,38.34 -20.848,0.628 -37.946,-16.082 -37.946,-36.793 V 129.93 c 6.367,0 12.457,3.972 17.821,9.441 11.293,11.527 29.503,11.129 40.578,-0.621"
         style="fill:#ffffff;fill-opacity:1;fill-rule:nonzero;stroke:none"
         transform="matrix(0.13333333,0,0,-0.13333333,0,71.32)" />
      <path
         id="path9"
         d="m 454.035,461.227 v 0 c -20.25,0 -36.805,16.558 -36.805,36.808 0,20.242 16.555,36.82 36.805,36.82 20.246,0 36.809,-16.578 36.809,-36.82 0,-20.25 -16.563,-36.808 -36.809,-36.808"
         style="fill:#ffffff;fill-opacity:1;fill-rule:nonzero;stroke:none"
         transform="matrix(0.13333333,0,0,-0.13333333,0,71.32)" />
      <path
         id="path10"
         d="m 156.57,138.559 c 4.848,-5.145 10.114,-8.821 15.227,-8.821 v 256.125 c 0,20.164 -15.531,37.742 -35.68,38.34 -20.851,0.629 -37.949,-16.082 -37.949,-36.793 V 129.738 c 6.367,0 12.457,3.973 17.82,9.442 11.297,11.527 29.508,11.129 40.582,-0.621"
         style="fill:#ffffff;fill-opacity:1;fill-rule:nonzero;stroke:none"
         transform="matrix(0.13333333,0,0,-0.13333333,0,71.32)" />
      <path
         id="path11"
         d="m 223.844,415.402 c -4.856,5.149 -10.117,8.821 -15.231,8.821 V 168.094 c 0,-20.156 15.532,-37.735 35.684,-38.336 20.844,-0.625 37.945,16.078 37.945,36.793 v 257.672 c -6.367,0 -12.457,-3.969 -17.82,-9.446 -11.293,-11.519 -29.508,-11.121 -40.578,0.625"
         style="fill:#ffffff;fill-opacity:1;fill-rule:nonzero;stroke:none"
         transform="matrix(0.13333333,0,0,-0.13333333,0,71.32)" />
      <path
         id="path12"
         d="m 10.3203,17.1445 c -2.98046,1.5157 -5.28124,3.6602 -6.93358,6.4532 -1.64453,2.789 -2.460939,6.0117 -2.460939,9.664 v 36.086 c 0,0.2539 0.097659,0.4765 0.277349,0.6601 0.17578,0.1836 0.39453,0.2852 0.66406,0.2852 h 7.20312 c 0.25782,0 0.48047,-0.1016 0.66016,-0.2852 0.18359,-0.1836 0.27343,-0.4062 0.27343,-0.6601 V 33.1055 c 0,-3.0782 0.9649,-5.5782 2.9024,-7.5078 1.9179,-1.9375 4.4843,-2.8907 7.664,-2.8907 3.1875,0 5.7305,0.9532 7.6719,2.8907 1.9297,1.9296 2.9023,4.4296 2.9023,7.5078 v 36.2422 c 0,0.2539 0.0821,0.4765 0.2696,0.6601 0.1836,0.1836 0.3984,0.2852 0.6562,0.2852 h 7.2031 c 0.2579,0 0.4805,-0.1016 0.6641,-0.2852 0.1797,-0.1836 0.2813,-0.4062 0.2813,-0.6601 v -36.086 c 0,-3.6523 -0.8086,-6.875 -2.4219,-9.664 -1.6211,-2.793 -3.9258,-4.9375 -6.9024,-6.4532 -2.9648,-1.5195 -6.414,-2.2695 -10.3242,-2.2695 -3.8555,0 -7.2734,0.75 -10.25,2.2695"
         style="fill:#ffffff;fill-opacity:1;fill-rule:nonzero;stroke:none"
         transform="matrix(0.13333333,0,0,-0.13333333,0,71.32)" />
      <path
         id="path13"
         d="m 79.4531,52.3594 c 2.5313,-2.5 3.7969,-5.9141 3.7969,-10.25 V 16.4375 c 0,-0.2578 -0.082,-0.4805 -0.2734,-0.6641 -0.1797,-0.1796 -0.4102,-0.2695 -0.668,-0.2695 h -7.2031 c -0.2578,0 -0.4805,0.0899 -0.6602,0.2695 -0.1836,0.1836 -0.2734,0.4063 -0.2734,0.6641 v 23.793 c 0,2.4062 -0.6797,4.3359 -2.0313,5.8359 -1.3593,1.4766 -3.1601,2.2266 -5.4023,2.2266 -2.2422,0 -4.0508,-0.7344 -5.4336,-2.1953 -1.3867,-1.4571 -2.0859,-3.3868 -2.0859,-5.793 V 16.4375 c 0,-0.2578 -0.0821,-0.4805 -0.2657,-0.6641 -0.1875,-0.1796 -0.4062,-0.2695 -0.6679,-0.2695 h -7.1993 c -0.2578,0 -0.4921,0.0899 -0.6601,0.2695 -0.1836,0.1836 -0.2852,0.4063 -0.2852,0.6641 v 38.1172 c 0,0.2539 0.1016,0.4726 0.2852,0.6601 0.168,0.1836 0.4023,0.2774 0.6601,0.2774 h 7.1993 c 0.2617,0 0.4804,-0.0938 0.6679,-0.2774 0.1836,-0.1875 0.2657,-0.4062 0.2657,-0.6601 v -2.5 c 0,-0.1602 0.0507,-0.2695 0.1601,-0.3242 0.1094,-0.0469 0.1836,0 0.2305,0.164 2.1445,2.8164 5.3789,4.2266 9.7148,4.2266 4.2266,0 7.5977,-1.2656 10.1289,-3.7617"
         style="fill:#ffffff;fill-opacity:1;fill-rule:nonzero;stroke:none"
         transform="matrix(0.13333333,0,0,-0.13333333,0,71.32)" />
      <path
         id="path14"
         d="m 93.6211,15.7734 c -0.1836,0.1836 -0.2734,0.4063 -0.2734,0.6641 v 38.1914 c 0,0.2539 0.0898,0.4844 0.2734,0.6758 0.1797,0.1797 0.4023,0.2617 0.6602,0.2617 h 7.1987 c 0.262,0 0.493,-0.082 0.672,-0.2617 0.176,-0.1914 0.274,-0.4219 0.274,-0.6758 V 16.4375 c 0,-0.2578 -0.098,-0.4805 -0.274,-0.6641 -0.179,-0.1796 -0.41,-0.2695 -0.672,-0.2695 h -7.1987 c -0.2579,0 -0.4805,0.0899 -0.6602,0.2695 M 94.043,62.543 c -1.0391,1.039 -1.5664,2.375 -1.5664,3.9765 0,1.625 0.5273,2.9493 1.5664,3.9961 1.0468,1.0547 2.3789,1.5664 4,1.5664 1.6133,0 2.949,-0.5117 3.988,-1.5664 1.043,-1.0468 1.567,-2.3711 1.567,-3.9961 0,-1.6015 -0.524,-2.9375 -1.567,-3.9765 -1.039,-1.0547 -2.3747,-1.5742 -3.988,-1.5742 -1.6211,0 -2.9532,0.5195 -4,1.5742"
         style="fill:#ffffff;fill-opacity:1;fill-rule:nonzero;stroke:none"
         transform="matrix(0.13333333,0,0,-0.13333333,0,71.32)" />
      <path
         id="path15"
         d="m 122.238,16.2813 -12.605,38.1914 c -0.051,0.1093 -0.078,0.2304 -0.078,0.3906 0,0.4687 0.285,0.7109 0.859,0.7109 h 7.988 c 0.575,0 0.946,-0.2695 1.094,-0.7812 l 7.59,-26.1407 c 0.047,-0.164 0.133,-0.2421 0.234,-0.2421 0.11,0 0.184,0.0781 0.243,0.2421 l 7.585,26.1407 c 0.157,0.5117 0.528,0.7812 1.098,0.7812 l 7.988,-0.164 c 0.305,0 0.543,-0.0938 0.696,-0.2735 0.164,-0.1836 0.183,-0.4531 0.078,-0.8242 L 132.488,16.2813 C 132.332,15.7539 132,15.5 131.473,15.5 h -8.223 c -0.516,0 -0.859,0.2539 -1.012,0.7813"
         style="fill:#ffffff;fill-opacity:1;fill-rule:nonzero;stroke:none"
         transform="matrix(0.13333333,0,0,-0.13333333,0,71.32)" />
      <path
         id="path16"
         d="m 161.992,46.8438 c -1.273,-0.9649 -2.179,-2.3008 -2.707,-4.0313 -0.301,-0.8906 -0.512,-2.0312 -0.621,-3.4453 -0.101,-0.2617 0,-0.3906 0.32,-0.3906 h 15.879 c 0.266,0 0.395,0.1289 0.395,0.3906 -0.11,1.3047 -0.258,2.2969 -0.461,2.9805 -0.481,1.875 -1.399,3.3359 -2.781,4.375 -1.383,1.039 -3.125,1.5664 -5.207,1.5664 -1.938,0 -3.539,-0.4805 -4.817,-1.4453 m 22.5,-11.2383 -0.086,-2.4219 c 0,-0.6211 -0.304,-0.9375 -0.926,-0.9375 h -24.496 c -0.257,0 -0.394,-0.125 -0.394,-0.3945 0.156,-1.7149 0.394,-2.8868 0.695,-3.5157 1.266,-3.7617 4.317,-5.6718 9.164,-5.7187 3.555,0 6.367,1.4726 8.453,4.3789 0.203,0.3203 0.461,0.4687 0.786,0.4687 0.203,0 0.39,-0.0742 0.546,-0.2304 L 183.09,23.25 c 0.465,-0.3633 0.547,-0.7812 0.226,-1.2617 -1.613,-2.2891 -3.773,-4.0664 -6.453,-5.3125 -2.679,-1.25 -5.672,-1.8867 -8.968,-1.8867 -4.063,0 -7.512,0.9179 -10.356,2.7422 -2.844,1.8242 -4.93,4.3906 -6.226,7.6718 -1.204,2.8164 -1.805,6.7305 -1.805,11.7422 0,3.0235 0.312,5.4766 0.933,7.3516 1.051,3.6484 3.02,6.539 5.922,8.6445 2.891,2.1211 6.379,3.1719 10.446,3.1719 10.277,0 16.07,-5.375 17.367,-16.1172 0.211,-1.3086 0.316,-2.7695 0.316,-4.3906"
         style="fill:#ffffff;fill-opacity:1;fill-rule:nonzero;stroke:none"
         transform="matrix(0.13333333,0,0,-0.13333333,0,71.32)" />
      <path
         id="path17"
         d="m 216.023,54.9414 c 0.418,-0.207 0.575,-0.6016 0.465,-1.1758 l -1.32,-7.039 c -0.063,-0.6289 -0.422,-0.8125 -1.102,-0.5547 -0.785,0.2695 -1.695,0.3906 -2.734,0.3906 -0.684,0 -1.203,-0.0195 -1.566,-0.0742 -2.196,-0.1094 -4.02,-0.8711 -5.477,-2.3008 -1.465,-1.4453 -2.195,-3.3047 -2.195,-5.5977 V 16.4336 c 0,-0.2578 -0.094,-0.4805 -0.278,-0.6641 -0.179,-0.1797 -0.406,-0.2656 -0.66,-0.2656 h -7.207 c -0.254,0 -0.472,0.0859 -0.66,0.2656 -0.184,0.1836 -0.277,0.4063 -0.277,0.6641 v 38.1172 c 0,0.2578 0.093,0.4805 0.277,0.6601 0.188,0.1836 0.406,0.2852 0.66,0.2852 h 7.207 c 0.254,0 0.481,-0.1016 0.66,-0.2852 0.184,-0.1796 0.278,-0.4023 0.278,-0.6601 v -3.5195 c 0,-0.2071 0.039,-0.3282 0.117,-0.3477 0.086,-0.0313 0.168,0.0312 0.273,0.1953 2.184,3.3867 5.246,5.0742 9.157,5.0742 1.664,0 3.132,-0.3359 4.382,-1.0117"
         style="fill:#ffffff;fill-opacity:1;fill-rule:nonzero;stroke:none"
         transform="matrix(0.13333333,0,0,-0.13333333,0,71.32)" />
      <path
         id="path18"
         d="m 229.016,16.4805 c -2.469,0.9648 -4.395,2.289 -5.758,3.9883 -1.344,1.6953 -2.035,3.5937 -2.035,5.6718 v 0.711 c 0,0.2539 0.09,0.4765 0.269,0.6601 0.199,0.1836 0.422,0.2696 0.676,0.2696 h 6.883 c 0.254,0 0.492,-0.086 0.66,-0.2696 0.184,-0.1836 0.285,-0.4062 0.285,-0.6601 v -0.1563 c 0,-1.3086 0.707,-2.4375 2.141,-3.4101 1.453,-0.9649 3.261,-1.4454 5.457,-1.4454 2.078,0 3.765,0.4336 5.074,1.2891 1.305,0.8594 1.965,1.9453 1.965,3.25 0,1.1953 -0.539,2.1055 -1.606,2.707 -1.082,0.5938 -2.8,1.2344 -5.207,1.9102 l -2.976,0.9375 c -2.653,0.7852 -4.91,1.6211 -6.735,2.5 -1.828,0.8984 -3.351,2.1055 -4.617,3.6406 -1.25,1.543 -1.875,3.5156 -1.875,5.9141 0,3.6523 1.43,6.5508 4.313,8.7226 2.863,2.168 6.652,3.2422 11.343,3.2422 3.18,0 5.977,-0.5 8.375,-1.5195 2.403,-1.0117 4.254,-2.4219 5.551,-4.2188 1.309,-1.8046 1.957,-3.8515 1.957,-6.1523 0,-0.2578 -0.082,-0.4805 -0.269,-0.6641 -0.184,-0.1796 -0.407,-0.2695 -0.668,-0.2695 h -6.653 c -0.261,0 -0.48,0.0899 -0.66,0.2695 -0.191,0.1836 -0.273,0.4063 -0.273,0.6641 0,1.3555 -0.672,2.5 -1.996,3.4023 -1.336,0.918 -3.149,1.3711 -5.438,1.3711 -2.043,0 -3.699,-0.3789 -4.976,-1.1328 -1.282,-0.7656 -1.922,-1.8164 -1.922,-3.1601 0,-1.2657 0.613,-2.211 1.836,-2.8711 1.242,-0.6485 3.289,-1.3555 6.152,-2.1406 l 1.727,-0.4805 c 2.754,-0.8281 5.086,-1.6719 6.957,-2.5313 1.886,-0.8711 3.476,-2.0742 4.777,-3.6054 1.313,-1.5391 1.961,-3.5391 1.961,-5.9883 0,-3.707 -1.461,-6.6133 -4.391,-8.7188 -2.922,-2.1211 -6.804,-3.1718 -11.656,-3.1718 -3.285,0 -6.176,0.4765 -8.648,1.4453"
         style="fill:#ffffff;fill-opacity:1;fill-rule:nonzero;stroke:none"
         transform="matrix(0.13333333,0,0,-0.13333333,0,71.32)" />
      <path
         id="path19"
         d="m 262.363,15.7734 c -0.183,0.1836 -0.269,0.4063 -0.269,0.6641 v 38.1914 c 0,0.2539 0.086,0.4844 0.269,0.6758 0.184,0.1797 0.407,0.2617 0.66,0.2617 h 7.207 c 0.258,0 0.473,-0.082 0.657,-0.2617 0.187,-0.1914 0.281,-0.4219 0.281,-0.6758 V 16.4375 c 0,-0.2578 -0.094,-0.4805 -0.281,-0.6641 -0.184,-0.1796 -0.399,-0.2695 -0.657,-0.2695 h -7.207 c -0.253,0 -0.476,0.0899 -0.66,0.2695 m 0.426,46.7696 c -1.039,1.039 -1.566,2.375 -1.566,3.9765 0,1.625 0.527,2.9493 1.566,3.9961 1.047,1.0547 2.375,1.5664 3.996,1.5664 1.613,0 2.953,-0.5117 3.992,-1.5664 1.039,-1.0468 1.559,-2.3711 1.559,-3.9961 0,-1.6015 -0.52,-2.9375 -1.559,-3.9765 -1.039,-1.0547 -2.379,-1.5742 -3.992,-1.5742 -1.621,0 -2.949,0.5195 -3.996,1.5742"
         style="fill:#ffffff;fill-opacity:1;fill-rule:nonzero;stroke:none"
         transform="matrix(0.13333333,0,0,-0.13333333,0,71.32)" />
      <path
         id="path20"
         d="m 301.977,48.4102 c -0.18,-0.1836 -0.407,-0.2696 -0.672,-0.2696 h -7.977 c -0.258,0 -0.39,-0.1367 -0.39,-0.4062 V 28.8828 c 0,-1.9805 0.429,-3.418 1.289,-4.3086 0.863,-0.8828 2.226,-1.3242 4.113,-1.3242 h 2.348 c 0.261,0 0.48,-0.0937 0.664,-0.2812 0.187,-0.1836 0.269,-0.4063 0.269,-0.6641 v -5.8594 c 0,-0.582 -0.316,-0.9258 -0.933,-1.0195 l -4.079,-0.0899 c -4.113,0 -7.199,0.7188 -9.23,2.1211 -2.031,1.4102 -3.078,4.0664 -3.125,7.9883 v 22.2891 c 0,0.2695 -0.137,0.4062 -0.395,0.4062 h -4.457 c -0.269,0 -0.492,0.086 -0.672,0.2696 -0.183,0.1836 -0.269,0.4062 -0.269,0.6601 v 5.4766 c 0,0.2695 0.086,0.4883 0.269,0.6719 0.18,0.1875 0.403,0.2695 0.672,0.2695 h 4.457 c 0.258,0 0.395,0.1328 0.395,0.3984 v 9.1563 c 0,0.2539 0.086,0.4765 0.269,0.6601 0.18,0.1836 0.407,0.2696 0.661,0.2696 h 6.812 c 0.274,0 0.477,-0.086 0.668,-0.2696 0.184,-0.1836 0.274,-0.4062 0.274,-0.6601 v -9.1563 c 0,-0.2656 0.132,-0.3984 0.39,-0.3984 h 7.977 c 0.265,0 0.492,-0.082 0.672,-0.2695 0.183,-0.1836 0.269,-0.4024 0.269,-0.6719 v -5.4766 c 0,-0.2539 -0.086,-0.4765 -0.269,-0.6601"
         style="fill:#ffffff;fill-opacity:1;fill-rule:nonzero;stroke:none"
         transform="matrix(0.13333333,0,0,-0.13333333,0,71.32)" />
      <path
         id="path21"
         d="m 320.84,60.8125 c -0.11,0.2109 -0.074,0.4648 0.07,0.7852 l 4.309,8.0625 c 0.211,0.4101 0.601,0.6211 1.176,0.6211 h 6.179 c 0.364,0 0.621,-0.1094 0.742,-0.3594 0.133,-0.2305 0.102,-0.5 -0.109,-0.8164 l -5.402,-7.9883 c -0.27,-0.4141 -0.621,-0.6055 -1.098,-0.6055 h -5.16 c -0.363,0 -0.609,0.0938 -0.707,0.3008 m -0.274,-13.9766 c -1.281,-0.9531 -2.179,-2.3046 -2.707,-4.0312 -0.304,-0.8789 -0.511,-2.0313 -0.621,-3.4375 -0.113,-0.2578 0,-0.3906 0.317,-0.3906 h 15.89 c 0.254,0 0.391,0.1328 0.391,0.3906 -0.113,1.3125 -0.27,2.3047 -0.481,2.9726 -0.464,1.875 -1.394,3.3477 -2.781,4.3868 -1.371,1.0429 -3.113,1.5664 -5.191,1.5664 -1.938,0 -3.539,-0.4844 -4.817,-1.4571 m 22.5,-11.2148 -0.082,-2.4336 c 0,-0.6328 -0.308,-0.9375 -0.929,-0.9375 h -24.5 c -0.27,0 -0.391,-0.1328 -0.391,-0.3906 0.149,-1.7266 0.391,-2.9024 0.695,-3.5313 1.25,-3.75 4.317,-5.6601 9.164,-5.707 3.54,0 6.356,1.457 8.454,4.3828 0.203,0.3125 0.464,0.4649 0.785,0.4649 0.199,0 0.39,-0.0743 0.539,-0.2266 L 341.66,23.25 c 0.469,-0.3711 0.535,-0.7891 0.231,-1.25 -1.614,-2.3086 -3.774,-4.0703 -6.453,-5.332 -2.696,-1.25 -5.68,-1.8711 -8.969,-1.8711 -4.063,0 -7.516,0.9179 -10.371,2.7383 -2.844,1.832 -4.91,4.3789 -6.211,7.6718 -1.196,2.8164 -1.797,6.7266 -1.797,11.7383 0,3.0235 0.305,5.4688 0.93,7.3594 1.043,3.6445 3.011,6.5273 5.918,8.6406 2.886,2.1094 6.367,3.1758 10.445,3.1758 10.277,0 16.055,-5.375 17.367,-16.1328 0.211,-1.2969 0.316,-2.7539 0.316,-4.3672"
         style="fill:#ffffff;fill-opacity:1;fill-rule:nonzero;stroke:none"
         transform="matrix(0.13333333,0,0,-0.13333333,0,71.32)" />
      <path
         id="path22"
         d="m 391.664,35.5352 c 0,4.0664 -0.648,7.1796 -1.961,9.3125 -1.41,2.3007 -3.394,3.4336 -5.941,3.4336 -2.672,0 -4.754,-1.086 -6.258,-3.2774 -1.566,-2.2891 -2.352,-5.4766 -2.352,-9.5586 0,-3.6445 0.621,-6.6484 1.871,-8.9844 1.457,-2.5117 3.688,-3.7617 6.653,-3.7617 2.672,0 4.726,1.25 6.183,3.7617 1.204,2.125 1.805,5.1563 1.805,9.0743 m 0.356,34.4765 c 0.183,0.1758 0.398,0.2696 0.664,0.2696 h 7.199 c 0.254,0 0.476,-0.0938 0.66,-0.2696 0.184,-0.1953 0.27,-0.4179 0.27,-0.6758 V 16.4375 c 0,-0.2695 -0.086,-0.4922 -0.27,-0.6602 -0.184,-0.1835 -0.406,-0.2851 -0.66,-0.2851 h -7.199 c -0.266,0 -0.481,0.1016 -0.664,0.2851 -0.188,0.168 -0.282,0.3907 -0.282,0.6602 v 2.3516 c 0,0.1484 -0.047,0.2578 -0.148,0.3086 -0.11,0.0507 -0.211,0 -0.32,-0.1602 -2.29,-2.707 -5.293,-4.0625 -9,-4.0625 -3.7,0 -6.832,0.9648 -9.387,2.9023 -2.559,1.9219 -4.422,4.6172 -5.555,8.0547 -0.945,2.918 -1.414,6.1797 -1.414,9.7774 0,3.707 0.441,6.8789 1.34,9.5547 1.133,3.4375 2.984,6.125 5.543,8.0547 2.566,1.9257 5.773,2.8906 9.629,2.8906 3.605,0 6.554,-1.2969 8.844,-3.9024 0.109,-0.1132 0.21,-0.1484 0.32,-0.1211 0.101,0.0196 0.148,0.1211 0.148,0.2774 v 16.9726 c 0,0.2579 0.094,0.4805 0.282,0.6758"
         style="fill:#ffffff;fill-opacity:1;fill-rule:nonzero;stroke:none"
         transform="matrix(0.13333333,0,0,-0.13333333,0,71.32)" />
      <path
         id="path23"
         d="m 435.129,55.2148 c 0.18,0.1836 0.402,0.2696 0.66,0.2696 h 7.133 c 0.254,0 0.473,-0.086 0.66,-0.2696 0.184,-0.1796 0.27,-0.4023 0.27,-0.6601 V 16.4375 c 0,-0.2578 -0.086,-0.4805 -0.27,-0.6602 -0.187,-0.1835 -0.406,-0.2851 -0.66,-0.2851 h -7.133 c -0.258,0 -0.48,0.1016 -0.66,0.2851 -0.184,0.1797 -0.274,0.4024 -0.274,0.6602 v 2.5117 c 0,0.1485 -0.058,0.2578 -0.152,0.3047 -0.113,0.0547 -0.211,0 -0.324,-0.1562 -2.129,-2.7696 -5.336,-4.1446 -9.621,-4.1446 -3.957,0 -7.293,1.1407 -9.977,3.4414 -2.691,2.2891 -4.027,5.5664 -4.027,9.7774 v 26.3828 c 0,0.2578 0.086,0.4805 0.269,0.6601 0.18,0.1836 0.403,0.2696 0.661,0.2696 h 7.203 c 0.258,0 0.488,-0.086 0.672,-0.2696 0.171,-0.1796 0.269,-0.4023 0.269,-0.6601 V 30.7578 c 0,-2.4492 0.641,-4.414 1.91,-5.8672 1.289,-1.457 3.078,-2.1953 5.367,-2.1953 2.352,0 4.227,0.7383 5.633,2.1953 1.41,1.4532 2.117,3.418 2.117,5.8672 v 23.7969 c 0,0.2578 0.09,0.4805 0.274,0.6601"
         style="fill:#ffffff;fill-opacity:1;fill-rule:nonzero;stroke:none"
         transform="matrix(0.13333333,0,0,-0.13333333,0,71.32)" />
      <path
         id="path24"
         d="m 470.344,15.7734 c -0.18,0.1836 -0.27,0.4063 -0.27,0.6641 v 52.9102 c 0,0.2578 0.09,0.4804 0.27,0.6601 0.183,0.1836 0.406,0.2735 0.664,0.2735 h 7.203 c 0.258,0 0.488,-0.0899 0.672,-0.2735 0.172,-0.1797 0.265,-0.4023 0.265,-0.6601 V 23.707 c 0,-0.2539 0.125,-0.3789 0.395,-0.3789 h 26.211 c 0.269,0 0.492,-0.0937 0.676,-0.2812 0.168,-0.1836 0.269,-0.3985 0.269,-0.6602 v -5.9492 c 0,-0.2578 -0.101,-0.4805 -0.269,-0.6641 -0.184,-0.1796 -0.407,-0.2695 -0.676,-0.2695 h -34.746 c -0.258,0 -0.481,0.0899 -0.664,0.2695"
         style="fill:#ffffff;fill-opacity:1;fill-rule:nonzero;stroke:none"
         transform="matrix(0.13333333,0,0,-0.13333333,0,71.32)" />
      <path
         id="path25"
         d="m 537.898,55.2148 c 0.184,0.1836 0.407,0.2696 0.665,0.2696 h 7.128 c 0.258,0 0.473,-0.086 0.661,-0.2696 0.183,-0.1796 0.269,-0.4023 0.269,-0.6601 V 16.4375 c 0,-0.2578 -0.086,-0.4805 -0.269,-0.6602 -0.188,-0.1835 -0.403,-0.2851 -0.661,-0.2851 h -7.128 c -0.258,0 -0.481,0.1016 -0.665,0.2851 -0.179,0.1797 -0.269,0.4024 -0.269,0.6602 v 2.5117 c 0,0.1485 -0.063,0.2578 -0.156,0.3047 -0.114,0.0547 -0.207,0 -0.325,-0.1562 -2.125,-2.7696 -5.332,-4.1446 -9.621,-4.1446 -3.968,0 -7.293,1.1407 -9.972,3.4414 -2.696,2.2891 -4.032,5.5664 -4.032,9.7774 v 26.3828 c 0,0.2578 0.086,0.4805 0.27,0.6601 0.184,0.1836 0.406,0.2696 0.66,0.2696 h 7.207 c 0.258,0 0.485,-0.086 0.66,-0.2696 0.184,-0.1796 0.278,-0.4023 0.278,-0.6601 V 30.7578 c 0,-2.4492 0.64,-4.414 1.91,-5.8672 1.293,-1.457 3.082,-2.1953 5.371,-2.1953 2.348,0 4.226,0.7383 5.629,2.1953 1.414,1.4532 2.121,3.418 2.121,5.8672 v 23.7969 c 0,0.2578 0.09,0.4805 0.269,0.6601"
         style="fill:#ffffff;fill-opacity:1;fill-rule:nonzero;stroke:none"
         transform="matrix(0.13333333,0,0,-0.13333333,0,71.32)" />
      <path
         id="path26"
         d="m 553.504,15.8516 c -0.137,0.2304 -0.102,0.5156 0.109,0.8164 l 12.696,18.6328 c 0.093,0.1484 0.093,0.3086 0,0.4648 l -12.696,18.5469 c -0.093,0.2109 -0.148,0.3945 -0.148,0.5469 0,0.4219 0.258,0.6289 0.789,0.6289 h 7.664 c 0.465,0 0.832,-0.207 1.086,-0.6289 l 8.152,-12.0508 c 0.094,-0.0938 0.207,-0.1563 0.305,-0.1563 0.113,0 0.18,0.0625 0.242,0.1563 l 8.137,12.0508 c 0.254,0.4219 0.621,0.6289 1.086,0.6289 h 8.219 c 0.371,0 0.613,-0.1055 0.75,-0.3555 0.132,-0.2305 0.101,-0.5 -0.125,-0.8203 L 577.098,35.7656 c -0.055,-0.1562 -0.055,-0.3164 0,-0.4648 L 589.77,16.668 c 0.109,-0.1992 0.164,-0.3907 0.164,-0.543 0,-0.4219 -0.262,-0.6289 -0.789,-0.6289 h -7.665 c -0.464,0 -0.832,0.207 -1.093,0.6289 l -8.145,12.0508 c -0.047,0.1094 -0.137,0.1562 -0.23,0.1562 -0.114,0 -0.207,-0.0468 -0.309,-0.1562 L 563.559,16.125 c -0.254,-0.4219 -0.621,-0.6289 -1.098,-0.6289 h -8.207 c -0.371,0 -0.629,0.1211 -0.75,0.3555"
         style="fill:#ffffff;fill-opacity:1;fill-rule:nonzero;stroke:none"
         transform="matrix(0.13333333,0,0,-0.13333333,0,71.32)" />
      <path
         id="path27"
         d="m 606.633,46.8438 c -1.278,-0.9649 -2.18,-2.3008 -2.707,-4.0313 -0.305,-0.8906 -0.516,-2.0312 -0.621,-3.4453 -0.102,-0.2617 0,-0.3906 0.316,-0.3906 h 15.883 c 0.262,0 0.391,0.1289 0.391,0.3906 -0.11,1.3047 -0.262,2.2969 -0.457,2.9805 -0.481,1.875 -1.399,3.3359 -2.786,4.375 -1.382,1.039 -3.125,1.5664 -5.203,1.5664 -1.937,0 -3.539,-0.4805 -4.816,-1.4453 m 22.5,-11.2383 -0.074,-2.4219 c 0,-0.6211 -0.317,-0.9375 -0.938,-0.9375 h -24.5 c -0.258,0 -0.391,-0.125 -0.391,-0.3945 0.157,-1.7149 0.391,-2.8868 0.696,-3.5157 1.262,-3.7617 4.316,-5.6718 9.164,-5.7187 3.551,0 6.367,1.4726 8.453,4.3789 0.203,0.3203 0.473,0.4687 0.781,0.4687 0.203,0 0.395,-0.0742 0.547,-0.2304 l 4.856,-3.9844 c 0.468,-0.3633 0.546,-0.7812 0.23,-1.2617 -1.613,-2.2891 -3.773,-4.0664 -6.453,-5.3125 -2.684,-1.25 -5.672,-1.8867 -8.969,-1.8867 -4.066,0 -7.515,0.9179 -10.359,2.7422 -2.84,1.8242 -4.93,4.3906 -6.227,7.6718 -1.199,2.8164 -1.793,6.7305 -1.793,11.7422 0,3.0235 0.305,5.4766 0.922,7.3516 1.055,3.6484 3.02,6.539 5.926,8.6445 2.887,2.1211 6.379,3.1719 10.445,3.1719 10.278,0 16.071,-5.375 17.367,-16.1172 0.207,-1.3086 0.317,-2.7695 0.317,-4.3906"
         style="fill:#ffffff;fill-opacity:1;fill-rule:nonzero;stroke:none"
         transform="matrix(0.13333333,0,0,-0.13333333,0,71.32)" />
      <path
         id="path28"
         d="m 689.895,52.4766 c 2.269,-2.4219 3.406,-5.8047 3.406,-10.1289 V 16.4414 c 0,-0.2695 -0.082,-0.4883 -0.285,-0.668 -0.184,-0.1914 -0.399,-0.2695 -0.657,-0.2695 h -7.117 c -0.269,0 -0.492,0.0781 -0.66,0.2695 -0.187,0.1797 -0.285,0.3985 -0.285,0.668 v 24.0195 c 0,2.4024 -0.633,4.3125 -1.926,5.7227 -1.266,1.4062 -2.976,2.1094 -5.113,2.1094 -2.145,0 -3.883,-0.7032 -5.242,-2.1094 -1.364,-1.4102 -2.039,-3.293 -2.039,-5.6367 V 16.4414 c 0,-0.2695 -0.094,-0.4883 -0.278,-0.668 -0.183,-0.1914 -0.406,-0.2695 -0.66,-0.2695 h -7.117 c -0.27,0 -0.492,0.0781 -0.676,0.2695 -0.183,0.1797 -0.269,0.3985 -0.269,0.668 v 24.0195 c 0,2.4024 -0.649,4.3125 -1.961,5.7227 -1.293,1.4062 -3.024,2.1094 -5.157,2.1094 -1.98,0 -3.613,-0.5821 -4.894,-1.7188 -1.277,-1.1523 -2.027,-2.7187 -2.231,-4.7031 V 16.4414 c 0,-0.2695 -0.086,-0.4883 -0.269,-0.668 -0.188,-0.1914 -0.406,-0.2695 -0.664,-0.2695 h -7.203 c -0.27,0 -0.485,0.0781 -0.676,0.2695 -0.184,0.1797 -0.27,0.3985 -0.27,0.668 V 54.543 c 0,0.2695 0.086,0.4922 0.27,0.6758 0.191,0.1835 0.406,0.2695 0.676,0.2695 h 7.203 c 0.258,0 0.476,-0.086 0.664,-0.2695 0.183,-0.1836 0.269,-0.4063 0.269,-0.6758 v -2.5782 c 0,-0.1484 0.047,-0.2578 0.157,-0.3125 0.101,-0.0468 0.207,0 0.308,0.1641 1.149,1.457 2.567,2.5313 4.278,3.2461 1.687,0.6992 3.57,1.0547 5.664,1.0547 2.566,0 4.8,-0.5274 6.722,-1.5742 1.942,-1.0391 3.418,-2.543 4.473,-4.5313 0.148,-0.207 0.332,-0.207 0.539,0 1.156,2.0899 2.746,3.6289 4.781,4.6211 2.032,0.9922 4.309,1.4844 6.809,1.4844 4.015,0 7.164,-1.2149 9.43,-3.6406"
         style="fill:#ffffff;fill-opacity:1;fill-rule:nonzero;stroke:none"
         transform="matrix(0.13333333,0,0,-0.13333333,0,71.32)" />
      <path
         id="path29"
         d="m 728.859,35.4531 c 0,4.0664 -0.785,7.2539 -2.351,9.5547 -1.41,2.1953 -3.492,3.2852 -6.258,3.2852 -2.562,0 -4.512,-1.1563 -5.867,-3.4453 -1.297,-2.1407 -1.961,-5.2422 -1.961,-9.3047 0,-4.0313 0.601,-7.043 1.797,-9.0899 1.363,-2.5 3.394,-3.7461 6.109,-3.7461 1.461,0 2.762,0.3164 3.91,0.9766 1.157,0.6523 2.063,1.5703 2.742,2.7695 1.25,2.1875 1.879,5.1914 1.879,9 m 9.313,0.1563 c 0,-3.7071 -0.496,-6.9688 -1.488,-9.7852 -1.149,-3.4336 -2.996,-6.125 -5.555,-8.0547 -2.555,-1.9218 -5.688,-2.8906 -9.387,-2.8906 -3.66,0 -6.652,1.3711 -9.004,4.1406 -0.113,0.1563 -0.207,0.2032 -0.316,0.1563 -0.102,-0.0469 -0.149,-0.1563 -0.149,-0.3047 v -2.4375 c 0,-0.2578 -0.101,-0.4805 -0.285,-0.6641 -0.179,-0.1797 -0.402,-0.2695 -0.66,-0.2695 h -7.195 c -0.266,0 -0.481,0.0898 -0.664,0.2695 -0.188,0.1836 -0.285,0.4063 -0.285,0.6641 v 52.9102 c 0,0.2578 0.097,0.4804 0.285,0.664 0.183,0.1797 0.398,0.2813 0.664,0.2813 h 7.195 c 0.258,0 0.481,-0.1016 0.66,-0.2813 0.184,-0.1836 0.285,-0.4062 0.285,-0.664 V 52.3555 c 0,-0.1563 0.047,-0.2578 0.149,-0.3047 0.109,-0.0586 0.203,-0.0391 0.316,0.0742 2.242,2.6563 5.215,3.9922 8.914,3.9922 3.864,0 7.059,-0.9649 9.598,-2.9024 2.531,-1.9257 4.395,-4.621 5.598,-8.0585 0.875,-2.9141 1.324,-6.1016 1.324,-9.5469"
         style="fill:#ffffff;fill-opacity:1;fill-rule:nonzero;stroke:none"
         transform="matrix(0.13333333,0,0,-0.13333333,0,71.32)" />
      <path
         id="path30"
         d="m 768.617,24.3438 c 1.387,1.0859 2.391,2.6328 3.016,4.621 0.523,1.7266 0.781,3.9141 0.781,6.5743 0,2.8164 -0.258,5.0117 -0.781,6.5625 -0.578,1.9882 -1.57,3.5195 -2.981,4.5859 -1.406,1.0586 -3.121,1.6016 -5.164,1.6016 -1.925,0 -3.601,-0.543 -5,-1.6016 -1.422,-1.0664 -2.433,-2.5977 -3.062,-4.5859 -0.516,-1.8243 -0.785,-4.0157 -0.785,-6.5625 0,-2.5586 0.269,-4.7539 0.785,-6.5743 0.578,-1.9882 1.578,-3.5351 3.015,-4.621 1.434,-1.0938 3.168,-1.6407 5.207,-1.6407 1.934,0 3.586,0.5469 4.969,1.6407 m -15.574,-6.3477 c -2.945,2.0937 -5.027,4.9922 -6.215,8.6992 -0.89,2.8125 -1.336,5.7774 -1.336,8.918 0,3.3437 0.418,6.3086 1.25,8.9258 1.199,3.6523 3.281,6.4961 6.258,8.5312 2.98,2.0313 6.559,3.043 10.73,3.043 3.958,0 7.387,-1.0117 10.29,-3.043 2.89,-2.0351 4.937,-4.8555 6.136,-8.457 0.942,-2.5117 1.407,-5.4766 1.407,-8.918 0,-3.2969 -0.438,-6.2656 -1.325,-8.9258 -1.195,-3.7031 -3.254,-6.6132 -6.183,-8.7187 -2.926,-2.1211 -6.387,-3.1719 -10.407,-3.1719 -4.117,0 -7.656,1.0391 -10.605,3.1172"
         style="fill:#ffffff;fill-opacity:1;fill-rule:nonzero;stroke:none"
         transform="matrix(0.13333333,0,0,-0.13333333,0,71.32)" />
      <path
         id="path31"
         d="m 814.184,55.2148 c 0.179,0.1836 0.406,0.2696 0.66,0.2696 h 7.133 c 0.253,0 0.468,-0.086 0.652,-0.2696 0.191,-0.1796 0.269,-0.4023 0.269,-0.6601 V 16.4375 c 0,-0.2578 -0.078,-0.4805 -0.269,-0.6602 -0.184,-0.1835 -0.399,-0.2851 -0.652,-0.2851 h -7.133 c -0.254,0 -0.481,0.1016 -0.66,0.2851 -0.184,0.1797 -0.274,0.4024 -0.274,0.6602 v 2.5117 c 0,0.1485 -0.058,0.2578 -0.16,0.3047 -0.105,0.0547 -0.203,0 -0.316,-0.1562 -2.129,-2.7696 -5.34,-4.1446 -9.621,-4.1446 -3.973,0 -7.293,1.1407 -9.973,3.4414 -2.695,2.2891 -4.031,5.5664 -4.031,9.7774 v 26.3828 c 0,0.2578 0.086,0.4805 0.269,0.6601 0.18,0.1836 0.402,0.2696 0.66,0.2696 h 7.203 c 0.258,0 0.489,-0.086 0.664,-0.2696 0.18,-0.1796 0.278,-0.4023 0.278,-0.6601 V 30.7578 c 0,-2.4492 0.64,-4.414 1.91,-5.8672 1.289,-1.457 3.066,-2.1953 5.367,-2.1953 2.352,0 4.227,0.7383 5.633,2.1953 1.41,1.4532 2.117,3.418 2.117,5.8672 v 23.7969 c 0,0.2578 0.09,0.4805 0.274,0.6601"
         style="fill:#ffffff;fill-opacity:1;fill-rule:nonzero;stroke:none"
         transform="matrix(0.13333333,0,0,-0.13333333,0,71.32)" />
      <path
         id="path32"
         d="m 856.063,54.9414 c 0.417,-0.207 0.574,-0.6016 0.464,-1.1758 l -1.32,-7.039 c -0.051,-0.6289 -0.422,-0.8125 -1.102,-0.5547 -0.785,0.2695 -1.695,0.3906 -2.734,0.3906 -0.683,0 -1.203,-0.0195 -1.566,-0.0742 -2.196,-0.1094 -4.02,-0.8711 -5.477,-2.3008 -1.465,-1.4453 -2.195,-3.3047 -2.195,-5.5977 V 16.4336 c 0,-0.2578 -0.094,-0.4805 -0.278,-0.6641 -0.179,-0.1797 -0.402,-0.2656 -0.66,-0.2656 h -7.207 c -0.254,0 -0.472,0.0859 -0.66,0.2656 -0.183,0.1836 -0.277,0.4063 -0.277,0.6641 v 38.1172 c 0,0.2578 0.094,0.4805 0.277,0.6601 0.188,0.1836 0.406,0.2852 0.66,0.2852 h 7.207 c 0.258,0 0.481,-0.1016 0.66,-0.2852 0.184,-0.1796 0.278,-0.4023 0.278,-0.6601 v -3.5195 c 0,-0.2071 0.043,-0.3282 0.113,-0.3477 0.09,-0.0313 0.172,0.0312 0.277,0.1953 2.196,3.3867 5.247,5.0742 9.157,5.0742 1.664,0 3.133,-0.3359 4.383,-1.0117"
         style="fill:#ffffff;fill-opacity:1;fill-rule:nonzero;stroke:none"
         transform="matrix(0.13333333,0,0,-0.13333333,0,71.32)" />
      <path
         id="path33"
         d="m 886.691,31.3438 c 0.075,0.9179 0.122,2.3906 0.122,4.4257 0,1.9844 -0.047,3.4024 -0.122,4.2578 -0.074,0.8711 -0.242,1.7149 -0.511,2.5469 -0.418,1.7149 -1.262,3.1016 -2.539,4.1524 -1.282,1.039 -2.918,1.5586 -4.887,1.5586 -1.887,0 -3.481,-0.5196 -4.777,-1.5586 -1.309,-1.0508 -2.239,-2.4375 -2.817,-4.1524 -0.625,-1.4492 -0.941,-3.7539 -0.941,-6.8789 0,-3.25 0.254,-5.5117 0.781,-6.8125 0.512,-1.664 1.473,-3.039 2.855,-4.1133 1.387,-1.0703 3.04,-1.5937 4.969,-1.5937 2.035,0 3.684,0.5117 4.938,1.5508 1.25,1.0468 2.086,2.4062 2.5,4.0742 0.211,0.7812 0.355,1.625 0.429,2.543 m 0.395,23.871 c 0.18,0.1875 0.402,0.2696 0.66,0.2696 h 7.203 c 0.266,0 0.489,-0.0821 0.656,-0.2696 0.192,-0.1835 0.286,-0.4062 0.286,-0.6601 V 18.1523 c 0,-6.5156 -1.86,-11.16792 -5.598,-13.9648 C 886.559,1.39844 881.668,0 875.617,0 874.004,0 872.41,0.0898438 870.844,0.238281 870.27,0.296875 869.988,0.628906 869.988,1.25 l 0.231,6.42188 c 0,0.57421 0.371,0.86328 1.105,0.86328 1.508,-0.15625 2.864,-0.24219 4.067,-0.24219 3.902,0 6.785,0.76953 8.64,2.31643 1.852,1.5469 2.782,4.1406 2.782,7.7929 v 0.6211 c 0,0.1602 -0.059,0.2422 -0.153,0.2696 -0.113,0.0273 -0.211,-0.0157 -0.324,-0.1094 -2.129,-2.3008 -5.152,-3.457 -9.074,-3.457 -3.391,0 -6.492,0.8711 -9.309,2.5859 -2.82,1.7305 -4.777,4.3633 -5.867,7.9141 -0.688,2.4531 -1.02,5.5976 -1.02,9.4687 0,4.3203 0.418,7.6406 1.25,9.9297 1.039,3.1875 2.844,5.7344 5.403,7.6328 2.551,1.9102 5.551,2.8555 9,2.8555 4.121,0 7.328,-1.2031 9.617,-3.5938 0.113,-0.1562 0.211,-0.2148 0.324,-0.1562 0.094,0.0508 0.153,0.1562 0.153,0.3047 v 1.8867 c 0,0.2539 0.089,0.4766 0.273,0.6601"
         style="fill:#ffffff;fill-opacity:1;fill-rule:nonzero;stroke:none"
         transform="matrix(0.13333333,0,0,-0.13333333,0,71.32)" />
    </g>
  </g>
</svg>
