<svg xmlns="http://www.w3.org/2000/svg" xmlns:xlink="http://www.w3.org/1999/xlink" viewBox="0 0 3970 507" role="img" aria-label="DAISY — Data Information System for GDPR compliance">
  <!-- Dashboard banner in LCSB brand colours (UNI Blue surface, LCSB Sky
       flower). Rebuilt from daisy-logo-new.ai vectors; replaces banner.png. -->
  <defs>
    <path id="font_1_19" d="M.3857422 .7001953H.4560547V.02407837C.3979899 .006072998 .34058634-.0029296876 .283844-.0029296876 .24246216-.0029296876 .20558675 .0033976238 .17321778 .016052247 .1408488 .028717041 .11314901 .046376546 .09011841 .06903076 .06708781 .09169515 .049565633 .1185201 .03755188 .14950562 .025538126 .18049114 .01953125 .21464539 .01953125 .25196839 .01953125 .2966156 .02686564 .33493043 .041534425 .36691285 .05621338 .39890544 .07572428 .42522685 .10006714 .44587709 .124420169 .46653749 .15227254 .48169963 .18362427 .49136354 .214976 .5010274 .24732971 .5058594 .28068543 .5058594 .2986908 .5058594 .31636558 .50453189 .33370973 .50187686 .35105387 .49923197 .36839805 .4955953 .3857422 .4909668V.7001953M.09277344 .2509613C.09277344 .19286601 .108937587 .1459554 .14126587 .11022949 .17359416 .07450358 .21909078 .056640626 .27775575 .056640626 .29642234 .056640626 .3147532 .057810468 .3327484 .060150148 .35074363 .062489828 .3684082 .06666056 .3857422 .07266235V.42726136C.3697408 .43260194 .35324098 .43710838 .33624269 .44078065 .31924439 .4444529 .30274964 .44628907 .28675843 .44628907 .22743225 .44628907 .18026734 .4294281 .14526367 .39570619 .11027018 .36198426 .09277344 .31373597 .09277344 .2509613Z"/><path id="font_1_16" d="M.359375 .21638489C.33867393 .22570293 .31696574 .231191 .2942505 .23284912 .2715454 .23451741 .24850464 .23535156 .22512818 .23535156 .20842488 .23535156 .1920573 .23385112 .17602539 .23085022 .16000366 .2278595 .1454773 .22270203 .13244629 .21537781 .11942545 .20806377 .10890707 .19808452 .10089111 .18544007 .09287516 .17280579 .08886719 .15684001 .08886719 .13754273 .08886719 .10959879 .09938558 .088638309 .12042236 .074661258 .14146932 .060694379 .1706899 .053710939 .2080841 .053710939 .23881531 .053710939 .2673696 .059199018 .29374696 .07017517 .3201345 .08115133 .3420105 .10061137 .359375 .1285553V.21638489M.359375 0 .35951234 .052719118C.3494822 .039474489 .33828227 .029042563 .32591249 .02142334 .3135427 .01381429 .3005066 .008021037 .2868042 .004043579 .2731018 .000076293948 .25839234-.002400716 .24267578-.0033874512 .22695923-.004384359 .21041362-.0048828127 .19303894-.0048828127 .16829936-.0048828127 .14539592-.0018870036 .12432861 .0041046144 .103271488 .010096232 .08488464 .019083659 .06916809 .031066895 .05346171 .043060304 .041259767 .057876588 .032562257 .07551575 .023874918 .09316508 .01953125 .11364237 .01953125 .13694763 .01953125 .16492208 .024709067 .18922933 .035064699 .20986939 .0454305 .23050945 .059468587 .24765523 .077178958 .26130677 .09488932 .27495829 .11543783 .28511048 .13882447 .2917633 .16222127 .2984263 .18695069 .3017578 .2130127 .3017578 .2397461 .3017578 .2654775 .30075074 .2902069 .29873658 .3149363 .2967224 .33799235 .2916921 .359375 .28364564V.32458497C.359375 .3625183 .34753929 .39163209 .3238678 .41192628 .3002065 .43223063 .26737977 .4423828 .22538758 .4423828 .19871521 .4423828 .17621358 .43921409 .15788269 .4328766 .1395518 .4265493 .12138367 .41205345 .103378299 .38938905L.054382326 .43139649C.07571411 .4568685 .10004679 .47548423 .12738037 .48724366 .15471395 .49900309 .18837993 .5048828 .2283783 .5048828 .25771586 .5048828 .28471376 .50121566 .30937196 .49388124 .3340403 .486557 .35523988 .47556053 .37297059 .46089173 .3907013 .44623313 .40442405 .42823792 .4141388 .40690614 .42385356 .38557435 .42871095 .36091105 .42871095 .33291627V0H.359375Z"/><path id="font_1_24" d="M.028320313 0V.5H.09863281V0H.028320313M.020477295 .6572113C.020477295 .6698761 .024307251 .6802063 .031967164 .6882019 .03963725 .6961975 .049804689 .7001953 .062469484 .7001953 .07513428 .7001953 .08546448 .6961975 .09346008 .6882019 .10146586 .6802063 .10546875 .6698761 .10546875 .6572113 .10546875 .6445567 .10146586 .63439437 .09346008 .62672427 .08546448 .61906436 .07513428 .6152344 .062469484 .6152344 .049804689 .6152344 .03963725 .61906436 .031967164 .62672427 .024307251 .63439437 .020477295 .6445567 .020477295 .6572113Z"/><path id="font_1_34" d="M.33073426 .38131715C.31403099 .40331016 .29599 .41947428 .27661134 .42980958 .25723268 .44014488 .23418172 .4453125 .2074585 .4453125 .17337036 .4453125 .1494751 .43899028 .1357727 .42634584 .12208048 .4137014 .115234378 .3977305 .115234378 .37843324 .115234378 .36512757 .1184082 .3538157 .12475586 .34449769 .13110352 .33517967 .13945516 .32718913 .14981079 .32052613 .16016643 .3138733 .17219036 .30804954 .18588257 .3030548 .19958496 .29807029 .21378581 .2932485 .2284851 .28858949 .246521 .28259788 .26455689 .2761078 .28259278 .26911927 .30063883 .2621409 .3171743 .25299073 .3321991 .2416687 .3472341 .23035686 .35942588 .21654766 .3687744 .20024109 .37813316 .1839447 .3828125 .16348267 .3828125 .13885498 .3828125 .116231288 .37812297 .09593201 .3687439 .07795715 .35936485 .059992475 .346639 .044855756 .3305664 .032546998 .314504 .020238242 .29563905 .010920207 .27397157 .0045928957 .25230409-.0017242432 .22913616-.0048828127 .20446778-.0048828127 .16647339-.0048828127 .13280742 .0016682943 .10346985 .014770508 .074142459 .027882895 .04647827 .049494428 .020477295 .0796051L.07247925 .12760926C.10713705 .080947879 .15213521 .057617189 .20747376 .057617189 .24347432 .057617189 .2701416 .064600627 .2874756 .078567508 .30480958 .092544559 .31347657 .10951742 .31347657 .12948609 .31347657 .14479573 .31030274 .15760295 .30395509 .16790772 .29760743 .17822266 .28892008 .18704224 .27789308 .19436646 .26687623 .20169068 .254186 .20784505 .23982239 .21282959 .22545879 .2178243 .21026103 .22265117 .19422913 .22731018 .17619324 .23263042 .15832012 .23861695 .14060974 .24526978 .122909549 .2519226 .107045497 .2604065 .09301758 .27072145 .07898966 .28103639 .067464198 .2941793 .058441163 .31015016 .049428304 .326121 .044921876 .3464203 .044921876 .37104798 .044921876 .41496278 .06029765 .44889833 .091049198 .4728546 .12180074 .4968109 .1615804 .50878909 .21038819 .50878909 .2451477 .50878909 .276062 .5027415 .3031311 .49064637 .33021037 .4785614 .35611979 .45744834 .38085938 .42730714L.33174134 .38031007 .33073426 .38131715Z"/><path id="font_1_41" d="M.07299805-.14703369C.086995448-.14436849 .10299174-.14003499 .12098694-.1340332 .13899231-.12803142 .15616353-.11952718 .17250061-.10852051 .18883769-.09752401 .20250447-.083857219 .21350098-.06752014 .22449748-.051193239 .22999573-.031361898 .22999573-.008026123L.020004273 .5H.09899902L.26600648 .07998657 .43200685 .5H.5070038L.29899598-.008026123 .28100587-.056030275C.27500407-.07535807 .26633708-.093688968 .25500489-.11102295 .24367269-.12835694 .22967021-.14369202 .21299744-.1570282 .19633484-.17036438 .17750041-.18136597 .15649414-.19003296 .13549805-.19869995 .11266581-.20436605 .08799744-.20703125L.07299805-.14703369Z"/>
  </defs>
  <rect width="3970" height="507" fill="#1e3446"/>
  <g transform="translate(1317.80,-1491.20) scale(6.0)" opacity="0.45">
    <path transform="matrix(1,0,0,-1,423.4473,293.5415)" d="M0 0C-4.773-.386-9.48 .202-13.991 1.751-16.972 2.772-19.791 4.198-22.377 5.988-22.38 5.991-22.385 5.994-22.391 5.999-23.374 6.681-24.329 7.422-25.243 8.21V8.265C-24.348 9.037-23.415 9.765-22.451 10.433-22.44 10.441-22.429 10.449-22.416 10.458-22.413 10.46-22.407 10.463-22.404 10.466-22.396 10.471-22.391 10.477-22.383 10.479-20.316 11.914-18.085 13.118-15.754 14.065-11.626 15.74-7.264 16.588-2.783 16.588-1.858 16.588-.925 16.55 0 16.474 7.283 15.891 14.191 12.987 19.706 8.238 14.188 3.487 7.283 .583 0 0M11.747-21.469C4.628-22.818-2.77-21.893-9.349-18.795-9.371-18.781-9.393-18.773-9.418-18.762-9.426-18.756-9.437-18.751-9.448-18.746-9.461-18.74-9.475-18.732-9.492-18.724-16.657-15.308-22.457-9.5-25.826-2.365-26.335-1.287-26.794-.162-27.197 .991-27.188 1.001-27.183 1.015-27.175 1.026-26.261 1.201-25.341 1.335-24.424 1.434-21.674-.378-18.709-1.839-15.589-2.907-11.457-4.327-7.182-5.042-2.835-5.042-2.063-5.042-1.292-5.017-.517-4.973 5.159-9.098 9.44-14.865 11.747-21.469M-10-43.216C-16.61-40.907-22.377-36.623-26.499-30.95-26.455-30.197-26.431-29.439-26.431-28.686-26.431-23.568-27.402-18.581-29.315-13.866-30.281-11.481-31.488-9.191-32.903-7.045-32.802-6.123-32.671-5.203-32.499-4.294-32.485-4.289-32.471-4.281-32.46-4.272-31.579-4.579-30.717-4.924-29.876-5.296-26.1-12.826-19.936-18.992-12.371-22.799-9.521-29.206-8.698-36.338-10-43.216M-31.472-31.47C-32.055-38.752-34.959-45.661-39.708-51.175-44.459-45.658-47.363-38.752-47.946-31.47-48.586-23.538-46.457-15.59-41.949-9.089-41.927-9.057-41.905-9.024-41.886-8.991-41.218-8.039-40.499-7.113-39.735-6.227H-39.68C-38.908-7.122-38.183-8.055-37.512-9.019-37.504-9.029-37.496-9.041-37.488-9.051-37.485-9.057-37.482-9.062-37.479-9.065-37.474-9.073-37.469-9.079-37.466-9.087-36.032-11.153-34.828-13.384-33.88-15.716-32.206-19.843-31.357-24.206-31.357-28.686-31.357-29.611-31.396-30.547-31.472-31.47M-52.918-30.952C-57.041-36.626-62.807-40.907-69.414-43.216-69.822-41.084-70.027-38.922-70.027-36.768-70.027-31.716-68.878-26.62-66.705-22.038-66.294-21.184-65.859-20.349-65.405-19.564-61.874-13.452-56.655-8.641-50.311-5.644-49.232-5.135-48.107-4.675-46.955-4.272-46.944-4.281-46.93-4.289-46.917-4.294-46.744-5.203-46.613-6.12-46.512-7.045-51.148-14.079-53.403-22.5-52.918-30.952M-70.747-19.099C-77.154-21.951-84.29-22.774-91.165-21.469-89.93-17.919-88.143-14.629-85.831-11.662-83.846-9.117-81.514-6.873-78.898-4.973-78.145-5.017-77.395-5.039-76.643-5.039-68.96-5.039-61.406-2.784-54.996 1.434-54.068 1.335-53.148 1.201-52.24 1.029-52.234 1.015-52.226 1.001-52.218 .991-52.527 .106-52.872-.758-53.244-1.601-60.122-5.047-65.791-10.387-69.669-17.101-70.041-17.741-70.399-18.412-70.747-19.099M-99.124 8.241C-96.277 10.699-93.083 12.653-89.602 14.065-86.348 15.384-82.921 16.194-79.41 16.474-78.49 16.55-77.557 16.588-76.631 16.588-72.797 16.588-69.025 15.959-65.421 14.722-62.443 13.701-59.619 12.272-57.03 10.482-56.044 9.798-55.086 9.054-54.172 8.265V8.21C-55.064 7.441-55.998 6.713-56.961 6.043-56.972 6.038-56.983 6.029-56.994 6.021-57 6.019-57.005 6.016-57.008 6.013-57.016 6.007-57.021 6.002-57.03 5.999-63.533 1.489-71.48-.641-79.418 0-86.701 .583-93.606 3.487-99.124 8.241M-91.162 37.945C-89.03 38.353-86.868 38.558-84.714 38.558-79.661 38.558-74.565 37.408-69.986 35.235-69.129 34.825-68.295 34.39-67.509 33.935-61.4 30.404-56.589 25.188-53.595 18.849V18.846C-53.592 18.844-53.592 18.844-53.589 18.841-53.08 17.763-52.62 16.638-52.218 15.485-52.226 15.475-52.232 15.461-52.24 15.447-53.148 15.275-54.068 15.141-54.993 15.042-57.744 16.854-60.708 18.312-63.82 19.38-67.939 20.798-72.25 21.515-76.631 21.515-77.384 21.515-78.145 21.49-78.895 21.446-84.571 25.568-88.852 31.335-91.162 37.945M-69.414 59.695C-65.864 58.461-62.575 56.674-59.608 54.361-57.063 52.376-54.818 50.045-52.918 47.428-53.403 38.974-51.148 30.552-46.512 23.513-46.613 22.59-46.744 21.674-46.917 20.771-46.93 20.765-46.944 20.757-46.955 20.749-47.839 21.058-48.704 21.403-49.547 21.778-52.993 28.653-58.333 34.321-65.046 38.199-65.687 38.571-66.357 38.93-67.044 39.278-69.896 45.685-70.72 52.82-69.414 59.695M-47.946 47.935V47.948C-47.363 55.231-44.459 62.137-39.705 67.654-37.247 64.808-35.293 61.614-33.88 58.132-32.562 54.878-31.751 51.452-31.472 47.938V47.932C-31.396 47.018-31.357 46.087-31.357 45.162-31.357 41.328-31.986 37.556-33.224 33.952-34.245 30.974-35.67 28.152-37.463 25.563V25.56C-38.147 24.575-38.892 23.617-39.68 22.703H-39.735C-40.521 23.614-41.262 24.572-41.946 25.555-41.946 25.557-41.946 25.557-41.949 25.557-46.454 32.055-48.583 40.003-47.946 47.935M-30.169 8.238C-30.169 2.978-34.447-1.3-39.708-1.3-44.968-1.3-49.246 2.978-49.246 8.238-49.246 13.499-44.968 17.776-39.708 17.776-34.447 17.776-30.169 13.499-30.169 8.238M-28.565 32.351C-27.147 36.47-26.431 40.78-26.431 45.162-26.431 45.917-26.455 46.676-26.499 47.425-22.375 53.099-16.607 57.382-10 59.692-8.648 52.574-9.574 45.176-12.675 38.596-12.686 38.574-12.697 38.552-12.708 38.533-12.713 38.52-12.718 38.509-12.724 38.495-12.732 38.481-12.738 38.467-12.746 38.454-16.162 31.289-21.969 25.489-29.104 22.12-30.183 21.611-31.308 21.151-32.46 20.749-32.471 20.757-32.485 20.762-32.496 20.771-32.671 21.685-32.805 22.604-32.903 23.524-31.092 26.274-29.63 29.239-28.565 32.351M-8.67 35.575C-2.261 38.424 4.872 39.248 11.747 37.945 9.437 31.335 5.154 25.571-.52 21.446-1.272 21.49-2.031 21.515-2.783 21.515-7.901 21.515-12.888 20.543-17.604 18.63-19.988 17.664-22.279 16.457-24.424 15.042-25.35 15.143-26.266 15.275-27.175 15.447-27.181 15.461-27.188 15.475-27.197 15.485-26.888 16.367-26.545 17.229-26.173 18.069-18.644 21.846-12.478 28.012-8.67 35.575M25.065 9.979C19.821 15.226 13.22 18.854 6.073 20.505 11.44 25.505 15.341 31.954 17.259 39.116 17.429 39.749 17.341 40.419 17.013 40.985 16.687 41.552 16.148 41.965 15.519 42.132 8.353 44.051 .824 43.897-6.191 41.752-4.048 48.772-3.892 56.304-5.813 63.464-5.98 64.096-6.394 64.633-6.96 64.961-7.526 65.287-8.2 65.375-8.829 65.205-15.989 63.286-22.435 59.386-27.437 54.021-27.906 56.052-28.53 58.045-29.315 59.982-31.294 64.868-34.204 69.25-37.967 73.01-38.927 73.974-40.487 73.974-41.448 73.01-46.692 67.767-50.324 61.167-51.975 54.024-53.395 55.549-54.93 56.961-56.578 58.248-60.741 61.491-65.454 63.831-70.585 65.205-71.899 65.558-73.251 64.778-73.602 63.464-75.523 56.301-75.367 48.77-73.221 41.752-76.946 42.891-80.841 43.484-84.714 43.484-88.143 43.484-91.581 43.03-94.934 42.132-95.563 41.965-96.102 41.552-96.428 40.985-96.756 40.419-96.844 39.749-96.674 39.116-94.755 31.954-90.855 25.511-85.491 20.508-87.522 20.04-89.514 19.416-91.452 18.63-96.335 16.651-100.719 13.742-104.48 9.979-105.443 9.018-105.443 7.458-104.48 6.497-99.236 1.25-92.637-2.378-85.494-4.029-87.018-5.449-88.431-6.985-89.717-8.632-92.96-12.795-95.3-17.508-96.674-22.64-97.027-23.954-96.247-25.306-94.934-25.656-91.586-26.554-88.157-27-84.738-27-80.844-27-76.96-26.42-73.221-25.276-74.36-29.001-74.954-32.896-74.954-36.768-74.954-40.198-74.5-43.635-73.602-46.988-73.435-47.618-73.021-48.157-72.455-48.482-72.077-48.701-71.653-48.813-71.223-48.813-71.01-48.813-70.796-48.786-70.585-48.729-63.423-46.81-56.98-42.91-51.975-37.543-50.327-44.692-46.695-51.291-41.448-56.535-40.969-57.016-40.337-57.257-39.708-57.257-39.078-57.257-38.446-57.016-37.967-56.535-32.72-51.291-29.091-44.689-27.44-37.543-22.437-42.91-15.992-46.81-8.829-48.729-8.619-48.786-8.405-48.813-8.191-48.813-7.762-48.813-7.337-48.701-6.96-48.482-6.394-48.157-5.98-47.618-5.813-46.988-3.895-39.823-4.048-32.293-6.194-25.276-2.455-26.42 1.429-27 5.323-27 8.742-27 12.171-26.554 15.519-25.656 16.833-25.306 17.612-23.954 17.259-22.64 15.343-15.48 11.443-9.035 6.076-4.029 13.222-2.381 19.821 1.25 25.065 6.498 26.028 7.458 26.028 9.018 25.065 9.979" fill="#354859"/>
    <path transform="matrix(1,0,0,-1,398.0977,285.3037)" d="M0 0C0-7.929-6.428-14.357-14.358-14.357-22.288-14.357-28.716-7.929-28.716 0-28.716 7.93-22.288 14.358-14.358 14.358-6.428 14.358 0 7.93 0 0" fill="#354859"/>
  </g>
  <g transform="translate(-389.90,-410.05) scale(2.3)">
    <path transform="matrix(1,0,0,-1,394.1104,285.30323)" d="M0 0C0-5.728-4.643-10.371-10.371-10.371-16.098-10.371-20.741-5.728-20.741 0-20.741 5.728-16.098 10.371-10.371 10.371-4.643 10.371 0 5.728 0 0" fill="#ffffff"/>
    <path transform="matrix(1,0,0,-1,423.4473,293.5415)" d="M0 0C-4.773-.386-9.48 .202-13.991 1.751-16.972 2.772-19.791 4.198-22.377 5.988-22.38 5.991-22.385 5.994-22.391 5.999-23.374 6.681-24.329 7.422-25.243 8.21V8.265C-24.348 9.037-23.415 9.765-22.451 10.433-22.44 10.441-22.429 10.449-22.416 10.458-22.413 10.46-22.407 10.463-22.404 10.466-22.396 10.471-22.391 10.477-22.383 10.479-20.316 11.914-18.085 13.118-15.754 14.065-11.626 15.74-7.264 16.588-2.783 16.588-1.858 16.588-.925 16.55 0 16.474 7.283 15.891 14.191 12.987 19.706 8.238 14.188 3.487 7.283 .583 0 0M11.747-21.469C4.628-22.818-2.77-21.893-9.349-18.795-9.371-18.781-9.393-18.773-9.418-18.762-9.426-18.756-9.437-18.751-9.448-18.746-9.461-18.74-9.475-18.732-9.492-18.724-16.657-15.308-22.457-9.5-25.826-2.365-26.335-1.287-26.794-.162-27.197 .991-27.188 1.001-27.183 1.015-27.175 1.026-26.261 1.201-25.341 1.335-24.424 1.434-21.674-.378-18.709-1.839-15.589-2.907-11.457-4.327-7.182-5.042-2.835-5.042-2.063-5.042-1.292-5.017-.517-4.973 5.159-9.098 9.44-14.865 11.747-21.469M-10-43.216C-16.61-40.907-22.377-36.623-26.499-30.95-26.455-30.197-26.431-29.439-26.431-28.686-26.431-23.568-27.402-18.581-29.315-13.866-30.281-11.481-31.488-9.191-32.903-7.045-32.802-6.123-32.671-5.203-32.499-4.294-32.485-4.289-32.471-4.281-32.46-4.272-31.579-4.579-30.717-4.924-29.876-5.296-26.1-12.826-19.936-18.992-12.371-22.799-9.521-29.206-8.698-36.338-10-43.216M-31.472-31.47C-32.055-38.752-34.959-45.661-39.708-51.175-44.459-45.658-47.363-38.752-47.946-31.47-48.586-23.538-46.457-15.59-41.949-9.089-41.927-9.057-41.905-9.024-41.886-8.991-41.218-8.039-40.499-7.113-39.735-6.227H-39.68C-38.908-7.122-38.183-8.055-37.512-9.019-37.504-9.029-37.496-9.041-37.488-9.051-37.485-9.057-37.482-9.062-37.479-9.065-37.474-9.073-37.469-9.079-37.466-9.087-36.032-11.153-34.828-13.384-33.88-15.716-32.206-19.843-31.357-24.206-31.357-28.686-31.357-29.611-31.396-30.547-31.472-31.47M-52.918-30.952C-57.041-36.626-62.807-40.907-69.414-43.216-69.822-41.084-70.027-38.922-70.027-36.768-70.027-31.716-68.878-26.62-66.705-22.038-66.294-21.184-65.859-20.349-65.405-19.564-61.874-13.452-56.655-8.641-50.311-5.644-49.232-5.135-48.107-4.675-46.955-4.272-46.944-4.281-46.93-4.289-46.917-4.294-46.744-5.203-46.613-6.12-46.512-7.045-51.148-14.079-53.403-22.5-52.918-30.952M-70.747-19.099C-77.154-21.951-84.29-22.774-91.165-21.469-89.93-17.919-88.143-14.629-85.831-11.662-83.846-9.117-81.514-6.873-78.898-4.973-78.145-5.017-77.395-5.039-76.643-5.039-68.96-5.039-61.406-2.784-54.996 1.434-54.068 1.335-53.148 1.201-52.24 1.029-52.234 1.015-52.226 1.001-52.218 .991-52.527 .106-52.872-.758-53.244-1.601-60.122-5.047-65.791-10.387-69.669-17.101-70.041-17.741-70.399-18.412-70.747-19.099M-99.124 8.241C-96.277 10.699-93.083 12.653-89.602 14.065-86.348 15.384-82.921 16.194-79.41 16.474-78.49 16.55-77.557 16.588-76.631 16.588-72.797 16.588-69.025 15.959-65.421 14.722-62.443 13.701-59.619 12.272-57.03 10.482-56.044 9.798-55.086 9.054-54.172 8.265V8.21C-55.064 7.441-55.998 6.713-56.961 6.043-56.972 6.038-56.983 6.029-56.994 6.021-57 6.019-57.005 6.016-57.008 6.013-57.016 6.007-57.021 6.002-57.03 5.999-63.533 1.489-71.48-.641-79.418 0-86.701 .583-93.606 3.487-99.124 8.241M-91.162 37.945C-89.03 38.353-86.868 38.558-84.714 38.558-79.661 38.558-74.565 37.408-69.986 35.235-69.129 34.825-68.295 34.39-67.509 33.935-61.4 30.404-56.589 25.188-53.595 18.849V18.846C-53.592 18.844-53.592 18.844-53.589 18.841-53.08 17.763-52.62 16.638-52.218 15.485-52.226 15.475-52.232 15.461-52.24 15.447-53.148 15.275-54.068 15.141-54.993 15.042-57.744 16.854-60.708 18.312-63.82 19.38-67.939 20.798-72.25 21.515-76.631 21.515-77.384 21.515-78.145 21.49-78.895 21.446-84.571 25.568-88.852 31.335-91.162 37.945M-69.414 59.695C-65.864 58.461-62.575 56.674-59.608 54.361-57.063 52.376-54.818 50.045-52.918 47.428-53.403 38.974-51.148 30.552-46.512 23.513-46.613 22.59-46.744 21.674-46.917 20.771-46.93 20.765-46.944 20.757-46.955 20.749-47.839 21.058-48.704 21.403-49.547 21.778-52.993 28.653-58.333 34.321-65.046 38.199-65.687 38.571-66.357 38.93-67.044 39.278-69.896 45.685-70.72 52.82-69.414 59.695M-47.946 47.935V47.948C-47.363 55.231-44.459 62.137-39.705 67.654-37.247 64.808-35.293 61.614-33.88 58.132-32.562 54.878-31.751 51.452-31.472 47.938V47.932C-31.396 47.018-31.357 46.087-31.357 45.162-31.357 41.328-31.986 37.556-33.224 33.952-34.245 30.974-35.67 28.152-37.463 25.563V25.56C-38.147 24.575-38.892 23.617-39.68 22.703H-39.735C-40.521 23.614-41.262 24.572-41.946 25.555-41.946 25.557-41.946 25.557-41.949 25.557-46.454 32.055-48.583 40.003-47.946 47.935M-30.169 8.238C-30.169 2.978-34.447-1.3-39.708-1.3-44.968-1.3-49.246 2.978-49.246 8.238-49.246 13.499-44.968 17.776-39.708 17.776-34.447 17.776-30.169 13.499-30.169 8.238M-28.565 32.351C-27.147 36.47-26.431 40.78-26.431 45.162-26.431 45.917-26.455 46.676-26.499 47.425-22.375 53.099-16.607 57.382-10 59.692-8.648 52.574-9.574 45.176-12.675 38.596-12.686 38.574-12.697 38.552-12.708 38.533-12.713 38.52-12.718 38.509-12.724 38.495-12.732 38.481-12.738 38.467-12.746 38.454-16.162 31.289-21.969 25.489-29.104 22.12-30.183 21.611-31.308 21.151-32.46 20.749-32.471 20.757-32.485 20.762-32.496 20.771-32.671 21.685-32.805 22.604-32.903 23.524-31.092 26.274-29.63 29.239-28.565 32.351M-8.67 35.575C-2.261 38.424 4.872 39.248 11.747 37.945 9.437 31.335 5.154 25.571-.52 21.446-1.272 21.49-2.031 21.515-2.783 21.515-7.901 21.515-12.888 20.543-17.604 18.63-19.988 17.664-22.279 16.457-24.424 15.042-25.35 15.143-26.266 15.275-27.175 15.447-27.181 15.461-27.188 15.475-27.197 15.485-26.888 16.367-26.545 17.229-26.173 18.069-18.644 21.846-12.478 28.012-8.67 35.575M25.065 9.979C19.821 15.226 13.22 18.854 6.073 20.505 11.44 25.505 15.341 31.954 17.259 39.116 17.429 39.749 17.341 40.419 17.013 40.985 16.687 41.552 16.148 41.965 15.519 42.132 8.353 44.051 .824 43.897-6.191 41.752-4.048 48.772-3.892 56.304-5.813 63.464-5.98 64.096-6.394 64.633-6.96 64.961-7.526 65.287-8.2 65.375-8.829 65.205-15.989 63.286-22.435 59.386-27.437 54.021-27.906 56.052-28.53 58.045-29.315 59.982-31.294 64.868-34.204 69.25-37.967 73.01-38.927 73.974-40.487 73.974-41.448 73.01-46.692 67.767-50.324 61.167-51.975 54.024-53.395 55.549-54.93 56.961-56.578 58.248-60.741 61.491-65.454 63.831-70.585 65.205-71.899 65.558-73.251 64.778-73.602 63.464-75.523 56.301-75.367 48.77-73.221 41.752-76.946 42.891-80.841 43.484-84.714 43.484-88.143 43.484-91.581 43.03-94.934 42.132-95.563 41.965-96.102 41.552-96.428 40.985-96.756 40.419-96.844 39.749-96.674 39.116-94.755 31.954-90.855 25.511-85.491 20.508-87.522 20.04-89.514 19.416-91.452 18.63-96.335 16.651-100.719 13.742-104.48 9.979-105.443 9.018-105.443 7.458-104.48 6.497-99.236 1.25-92.637-2.378-85.494-4.029-87.018-5.449-88.431-6.985-89.717-8.632-92.96-12.795-95.3-17.508-96.674-22.64-97.027-23.954-96.247-25.306-94.934-25.656-91.586-26.554-88.157-27-84.738-27-80.844-27-76.96-26.42-73.221-25.276-74.36-29.001-74.954-32.896-74.954-36.768-74.954-40.198-74.5-43.635-73.602-46.988-73.435-47.618-73.021-48.157-72.455-48.482-72.077-48.701-71.653-48.813-71.223-48.813-71.01-48.813-70.796-48.786-70.585-48.729-63.423-46.81-56.98-42.91-51.975-37.543-50.327-44.692-46.695-51.291-41.448-56.535-40.969-57.016-40.337-57.257-39.708-57.257-39.078-57.257-38.446-57.016-37.967-56.535-32.72-51.291-29.091-44.689-27.44-37.543-22.437-42.91-15.992-46.81-8.829-48.729-8.619-48.786-8.405-48.813-8.191-48.813-7.762-48.813-7.337-48.701-6.96-48.482-6.394-48.157-5.98-47.618-5.813-46.988-3.895-39.823-4.048-32.293-6.194-25.276-2.455-26.42 1.429-27 5.323-27 8.742-27 12.171-26.554 15.519-25.656 16.833-25.306 17.612-23.954 17.259-22.64 15.343-15.48 11.443-9.035 6.076-4.029 13.222-2.381 19.821 1.25 25.065 6.498 26.028 7.458 26.028 9.018 25.065 9.979" fill="#afdef6"/>
    <path transform="matrix(1,0,0,-1,398.0977,285.3037)" d="M0 0C0-7.929-6.428-14.357-14.358-14.357-22.288-14.357-28.716-7.929-28.716 0-28.716 7.93-22.288 14.358-14.358 14.358-6.428 14.358 0 7.93 0 0" fill="#c7e8f9"/>
    <use data-text="d" xlink:href="#font_1_19" transform="matrix(80,0,0,-80,475.3574,304.8876)" fill="#ffffff"/><use data-text="a" xlink:href="#font_1_16" transform="matrix(80,0,0,-80,513.4374,304.8876)" fill="#ffffff"/><use data-text="i" xlink:href="#font_1_24" transform="matrix(80,0,0,-80,549.2774,304.8876)" fill="#ffffff"/><use data-text="s" xlink:href="#font_1_34" transform="matrix(80,0,0,-80,559.2774,304.8876)" fill="#ffffff"/><use data-text="y" xlink:href="#font_1_41" transform="matrix(80,0,0,-80,591.4374,304.8876)" fill="#ffffff"/>
  </g>
  <text x="703" y="375" font-family="'Barlow','Segoe UI',system-ui,sans-serif" font-size="46" fill="#c7e8f9">Data Information System for GDPR compliance</text>
</svg>
