<?xml version="1.0" encoding="UTF-8"?>
<svg id="Logos" xmlns="http://www.w3.org/2000/svg" baseProfile="tiny" version="1.2" viewBox="0 0 213.73 40.82">

  <g>
    <path d="M101.74,9.46s-.05-.07-.05-.11V.5s.02-.08.05-.11c.03-.03.07-.05.11-.05h1.2s.08.02.11.05c.03.03.05.07.05.11v7.63s.02.07.07.07h4.38s.08.02.11.05.05.07.05.11v.99s-.02.08-.05.11-.07.05-.11.05h-5.81s-.08-.02-.11-.05Z" fill="#1e3446"></path>
    <path d="M113.01,2.86s.07-.05.11-.05h1.19s.08.02.11.05c.03.03.05.07.05.11v6.37s-.02.08-.05.11c-.03.03-.07.05-.11.05h-1.19s-.08-.02-.11-.05-.05-.07-.05-.11v-.42s0-.04-.03-.05-.03,0-.05.03c-.36.46-.89.69-1.61.69-.66,0-1.22-.19-1.67-.58-.45-.38-.67-.93-.67-1.64V2.98s.02-.08.05-.11.07-.05.11-.05h1.2s.08.02.11.05.05.07.05.11v3.98c0,.41.11.74.32.98.21.24.51.37.9.37s.71-.12.94-.37c.23-.24.35-.57.35-.98v-3.98s.02-.08.05-.11Z" fill="#1e3446"></path>
    <path d="M115.6,9.45s-.02-.09.02-.14l2.12-3.11s.02-.05,0-.08l-2.12-3.1s-.03-.07-.03-.09c0-.07.04-.1.13-.1h1.28c.08,0,.14.04.18.1l1.36,2.01s.03.03.05.03.03,0,.04-.03l1.36-2.01c.04-.07.1-.1.18-.1h1.37c.06,0,.1.02.12.06.02.04.02.09-.02.14l-2.12,3.1s0,.05,0,.08l2.12,3.11s.03.07.03.09c0,.07-.04.1-.13.1h-1.28c-.08,0-.14-.03-.18-.1l-1.36-2.01s-.02-.03-.04-.03-.04,0-.05.03l-1.36,2.01c-.04.07-.1.1-.18.1h-1.37c-.06,0-.1-.02-.12-.06Z" fill="#1e3446"></path>
    <path d="M128.1,6.14v.41c-.01.1-.06.16-.17.16h-4.09s-.07.02-.07.07c.03.29.07.48.12.59.21.63.72.95,1.53.96.59,0,1.06-.24,1.41-.73.03-.05.08-.08.13-.08.03,0,.07.01.09.04l.81.67c.08.06.09.13.04.21-.27.38-.63.68-1.08.89-.45.21-.95.31-1.5.31-.68,0-1.26-.15-1.73-.46-.48-.3-.82-.73-1.04-1.28-.2-.47-.3-1.12-.3-1.96,0-.51.05-.92.16-1.23.17-.61.5-1.09.99-1.45.48-.35,1.07-.53,1.75-.53,1.72,0,2.69.9,2.9,2.69.03.22.05.46.05.73ZM124.33,4.26c-.21.16-.36.39-.45.67-.05.15-.09.34-.1.58-.02.04,0,.07.05.07h2.66s.07-.02.07-.07c-.02-.22-.04-.38-.08-.5-.08-.31-.23-.56-.46-.73s-.52-.26-.87-.26c-.32,0-.59.08-.8.24Z" fill="#1e3446"></path>
    <path d="M138.2,3.32c.38.41.57.97.57,1.69v4.33s-.01.08-.05.11c-.03.03-.07.05-.11.05h-1.19s-.08-.02-.11-.05c-.03-.03-.05-.07-.05-.11v-4.02c0-.4-.11-.72-.32-.96s-.5-.35-.86-.35-.65.12-.88.35-.34.55-.34.94v4.03s-.01.08-.05.11-.07.05-.11.05h-1.19s-.08-.02-.11-.05c-.03-.03-.05-.07-.05-.11v-4.02c0-.4-.11-.72-.33-.96-.22-.24-.51-.35-.86-.35-.33,0-.6.1-.82.29-.21.19-.34.45-.37.78v4.25s-.01.08-.05.11-.07.05-.11.05h-1.2s-.08-.02-.11-.05-.05-.07-.05-.11V2.98s.01-.08.05-.11.07-.05.11-.05h1.2s.08.02.11.05.05.07.05.11v.43s0,.04.03.05c.02,0,.04,0,.05-.03.19-.24.43-.42.71-.54.28-.12.6-.18.95-.18.43,0,.8.09,1.12.26.32.17.57.43.75.76.03.04.06.04.09,0,.19-.35.46-.61.8-.77.34-.17.72-.25,1.14-.25.67,0,1.2.2,1.58.61Z" fill="#1e3446"></path>
    <path d="M146.15,6.14c0,.62-.08,1.16-.25,1.64-.19.58-.5,1.03-.93,1.35s-.95.48-1.57.48-1.11-.23-1.5-.69c-.02-.03-.04-.03-.05-.03-.02,0-.03.03-.03.05v.41s-.01.08-.05.11c-.03.03-.07.05-.11.05h-1.2s-.08-.02-.11-.05c-.03-.03-.05-.07-.05-.11V.5s.02-.08.05-.11c.03-.03.07-.05.11-.05h1.2s.08.02.11.05c.03.03.05.07.05.11v2.84s0,.04.03.05c.02,0,.03,0,.05-.01.37-.44.87-.67,1.49-.67s1.18.16,1.6.48c.42.32.74.77.94,1.35.15.49.22,1.02.22,1.6ZM144.59,6.17c0-.68-.13-1.21-.39-1.6-.23-.37-.58-.55-1.05-.55-.43,0-.75.19-.98.58-.22.36-.33.88-.33,1.56s.1,1.18.3,1.52c.23.42.57.63,1.02.63.24,0,.46-.05.66-.16.19-.11.34-.26.46-.46.21-.37.31-.87.31-1.5Z" fill="#1e3446"></path>
    <path d="M148.6,9.09c-.49-.35-.84-.83-1.04-1.45-.15-.47-.22-.97-.22-1.49,0-.56.07-1.06.21-1.49.2-.61.55-1.09,1.05-1.43.5-.34,1.09-.51,1.79-.51s1.24.17,1.72.51c.49.34.83.81,1.03,1.41.16.42.24.92.24,1.49s-.07,1.05-.22,1.49c-.2.62-.55,1.11-1.03,1.46-.49.35-1.07.53-1.74.53s-1.28-.17-1.77-.52ZM151.21,8.03c.23-.18.4-.44.5-.77.09-.29.13-.65.13-1.1,0-.47-.05-.84-.13-1.1-.09-.33-.26-.59-.5-.77-.23-.18-.52-.27-.86-.27s-.6.09-.84.27c-.24.18-.41.43-.51.77-.09.31-.13.67-.13,1.1s.05.79.13,1.1c.1.33.26.59.5.77.24.18.53.27.87.27.32,0,.6-.09.83-.27Z" fill="#1e3446"></path>
    <path d="M158.79,2.86s.07-.05.11-.05h1.19s.08.02.11.05.05.07.05.11v6.37s-.01.08-.05.11-.07.05-.11.05h-1.19s-.08-.02-.11-.05c-.03-.03-.05-.07-.05-.11v-.42s0-.04-.03-.05c-.02,0-.04,0-.05.03-.36.46-.89.69-1.61.69-.66,0-1.22-.19-1.67-.58-.45-.38-.67-.93-.67-1.64V2.98s.02-.08.05-.11c.03-.03.07-.05.11-.05h1.2s.08.02.11.05c.03.03.05.07.05.11v3.98c0,.41.11.74.32.98.21.24.51.37.9.37s.71-.12.94-.37c.23-.24.35-.57.35-.98v-3.98s.02-.08.05-.11Z" fill="#1e3446"></path>
    <path d="M165.71,2.91c.07.04.1.1.08.2l-.22,1.18c0,.1-.07.14-.18.09-.13-.04-.28-.07-.46-.07-.11,0-.2,0-.26.01-.37.02-.67.15-.92.39s-.37.55-.37.94v3.7s-.02.08-.05.11-.07.05-.11.05h-1.2s-.08-.02-.11-.05-.05-.07-.05-.11V2.98s.02-.08.05-.11.07-.05.11-.05h1.2s.08.02.11.05.05.07.05.11v.59s0,.05.02.06c.01,0,.03,0,.05-.03.37-.57.88-.85,1.53-.85.28,0,.52.06.73.17Z" fill="#1e3446"></path>
    <path d="M170.66,2.86s.07-.05.11-.05h1.2s.08.02.11.05.05.07.05.11v6.08c0,1.09-.31,1.87-.94,2.34s-1.44.7-2.45.7c-.27,0-.54-.01-.8-.04-.1,0-.14-.07-.14-.17l.04-1.07c0-.1.06-.14.18-.14.25.03.48.04.68.04.65,0,1.14-.13,1.45-.39s.46-.69.46-1.3v-.1s0-.04-.03-.05c-.02,0-.04,0-.05.02-.36.38-.86.58-1.52.58-.57,0-1.08-.14-1.55-.43-.47-.29-.8-.73-.98-1.32-.11-.41-.17-.94-.17-1.58,0-.72.07-1.28.21-1.66.17-.53.48-.96.9-1.28.43-.32.93-.48,1.5-.48.69,0,1.22.2,1.61.6.02.03.03.03.05.03.02,0,.03-.03.03-.05v-.31s.02-.08.05-.11ZM170.59,6.86c.01-.15.02-.4.02-.74s0-.57-.02-.71-.04-.29-.08-.42c-.07-.29-.21-.52-.43-.69s-.49-.26-.82-.26c-.31,0-.58.09-.8.26s-.37.41-.47.69c-.1.24-.16.63-.16,1.15s.04.92.13,1.14c.09.28.25.51.48.69.23.18.51.27.83.27.34,0,.61-.09.83-.26.21-.17.35-.4.42-.68.03-.13.06-.27.07-.42Z" fill="#1e3446"></path>
    <path d="M177.77,9.22c-.5-.26-.88-.62-1.15-1.08-.27-.46-.41-1-.41-1.61v-3.23c0-.61.14-1.15.41-1.61.27-.46.65-.82,1.15-1.07s1.07-.38,1.73-.38,1.22.12,1.71.37c.5.24.88.59,1.15,1.03s.41.96.41,1.54c0,.04-.02.08-.05.11-.03.03-.07.05-.11.05l-1.2.07c-.1,0-.16-.05-.16-.14,0-.51-.16-.93-.48-1.24-.32-.31-.74-.47-1.27-.47s-.96.16-1.28.47c-.32.31-.49.73-.49,1.24v3.34c0,.51.16.92.49,1.23.32.31.75.47,1.28.47s.96-.15,1.27-.46c.32-.31.48-.72.48-1.24,0-.1.05-.14.16-.14l1.2.05s.08.01.11.04c.03.03.05.06.05.09,0,.59-.14,1.11-.41,1.56-.27.45-.65.8-1.15,1.04s-1.07.37-1.71.37-1.23-.13-1.73-.39Z" fill="#1e3446"></path>
    <path d="M189.91,6.14v.41c-.01.1-.06.16-.17.16h-4.1s-.06.02-.06.07c.03.29.06.48.12.59.21.63.72.95,1.53.96.59,0,1.06-.24,1.41-.73.04-.05.08-.08.13-.08.03,0,.06.01.09.04l.81.67c.08.06.09.13.04.21-.27.38-.63.68-1.08.89s-.95.31-1.5.31c-.68,0-1.26-.15-1.73-.46-.48-.3-.82-.73-1.04-1.28-.2-.47-.3-1.12-.3-1.96,0-.51.05-.92.16-1.23.18-.61.51-1.09.99-1.45.48-.35,1.07-.53,1.75-.53,1.72,0,2.68.9,2.9,2.69.04.22.05.46.05.73ZM186.15,4.26c-.22.16-.37.39-.45.67-.05.15-.09.34-.1.58-.02.04,0,.07.05.07h2.66s.07-.02.07-.07c-.02-.22-.05-.38-.08-.5-.08-.31-.23-.56-.46-.73s-.52-.26-.87-.26c-.32,0-.59.08-.8.24Z" fill="#1e3446"></path>
    <path d="M196.18,3.34c.42.42.63.99.63,1.71v4.29s-.01.08-.05.11-.07.05-.11.05h-1.2s-.08-.02-.11-.05-.05-.07-.05-.11v-3.98c0-.4-.11-.73-.34-.98s-.53-.37-.9-.37-.68.12-.91.37c-.23.24-.35.57-.35.97v3.99s-.01.08-.05.11c-.03.03-.07.05-.11.05h-1.2s-.08-.02-.11-.05c-.03-.03-.05-.07-.05-.11V2.98s.02-.08.05-.11c.03-.03.07-.05.11-.05h1.2s.08.02.11.05c.03.03.05.07.05.11v.42s0,.04.03.05.03,0,.04-.03c.36-.47.9-.71,1.62-.71s1.27.21,1.69.63Z" fill="#1e3446"></path>
    <path d="M201.89,4s-.07.05-.11.05h-1.33s-.07.02-.07.07v3.15c0,.33.07.57.22.72.14.15.37.22.69.22h.39s.08.02.11.05c.03.03.05.07.05.11v.98c0,.1-.05.15-.16.17h-.68c-.69.01-1.2-.1-1.54-.34-.34-.24-.52-.68-.52-1.33v-3.73s-.02-.07-.07-.07h-.75s-.08-.01-.11-.05c-.03-.03-.05-.07-.05-.11v-.92s.01-.08.05-.11c.03-.03.07-.05.11-.05h.75s.07-.02.07-.07v-1.53s.01-.08.05-.11.07-.05.11-.05h1.14s.08.02.11.05c.03.03.05.07.05.11v1.53s.02.07.07.07h1.33s.08.02.11.05.05.07.05.11v.92s-.01.08-.05.11Z" fill="#1e3446"></path>
    <path d="M207.11,2.91c.07.04.09.1.08.2l-.22,1.18c0,.1-.07.14-.18.09-.13-.04-.28-.07-.46-.07-.11,0-.2,0-.26.01-.37.02-.67.15-.92.39s-.37.55-.37.94v3.7s-.01.08-.05.11-.07.05-.11.05h-1.2s-.08-.02-.11-.05-.05-.07-.05-.11V2.98s.01-.08.05-.11.07-.05.11-.05h1.2s.08.02.11.05.05.07.05.11v.59s0,.05.02.06c.01,0,.03,0,.05-.03.37-.57.88-.85,1.53-.85.28,0,.52.06.73.17Z" fill="#1e3446"></path>
    <path d="M213.73,6.14v.41c-.01.1-.06.16-.17.16h-4.1s-.06.02-.06.07c.03.29.06.48.12.59.21.63.72.95,1.53.96.59,0,1.06-.24,1.41-.73.04-.05.08-.08.13-.08.03,0,.06.01.09.04l.81.67c.08.06.09.13.04.21-.27.38-.63.68-1.08.89s-.95.31-1.5.31c-.68,0-1.26-.15-1.73-.46-.48-.3-.82-.73-1.04-1.28-.2-.47-.3-1.12-.3-1.96,0-.51.05-.92.16-1.23.18-.61.51-1.09.99-1.45.48-.35,1.07-.53,1.75-.53,1.72,0,2.68.9,2.9,2.69.04.22.05.46.05.73ZM209.97,4.26c-.22.16-.37.39-.45.67-.05.15-.09.34-.1.58-.02.04,0,.07.05.07h2.66s.07-.02.07-.07c-.02-.22-.05-.38-.08-.5-.08-.31-.23-.56-.46-.73s-.52-.26-.87-.26c-.32,0-.59.08-.8.24Z" fill="#1e3446"></path>
    <path d="M105.14,18.45s.05.07.05.11v1.03s-.02.08-.05.11-.07.05-.11.05h-1.3s-.07.02-.07.07v5.13s-.02.08-.05.11-.07.05-.11.05h-1.2s-.08-.02-.11-.05-.05-.07-.05-.11v-5.13s-.02-.07-.07-.07h-.81s-.08-.02-.11-.05-.05-.07-.05-.11v-1.03s.02-.08.05-.11.07-.05.11-.05h.81s.07-.02.07-.07v-.24c0-.57.07-1.01.22-1.31.15-.31.39-.53.73-.66.34-.13.82-.19,1.44-.18h.46s.08.02.11.05c.03.03.05.07.05.11v.92s-.02.08-.05.11-.07.05-.11.05h-.34c-.37,0-.63.07-.78.22-.14.15-.22.42-.22.81v.13s.02.07.07.07h1.3s.08.02.11.05Z" fill="#1e3446"></path>
    <path d="M107.05,24.68c-.49-.35-.84-.83-1.04-1.45-.15-.47-.22-.97-.22-1.49,0-.56.07-1.06.21-1.49.2-.61.55-1.09,1.05-1.43.5-.34,1.09-.51,1.79-.51s1.24.17,1.72.51c.48.34.83.81,1.03,1.41.16.42.24.92.24,1.49s-.07,1.05-.22,1.49c-.2.62-.55,1.11-1.03,1.46s-1.07.53-1.74.53-1.28-.17-1.77-.52ZM109.66,23.62c.23-.18.4-.44.5-.77.09-.29.13-.65.13-1.1,0-.47-.04-.84-.13-1.1-.1-.33-.26-.59-.5-.77-.23-.18-.52-.27-.86-.27-.32,0-.6.09-.84.27-.24.18-.41.43-.51.77-.09.31-.13.67-.13,1.1s.04.79.13,1.1c.1.33.26.59.5.77.24.18.53.27.87.27.32,0,.6-.09.83-.27Z" fill="#1e3446"></path>
    <path d="M117.09,18.51c.07.04.1.1.08.2l-.22,1.18c0,.1-.07.14-.18.09-.13-.04-.28-.07-.46-.07-.11,0-.2,0-.26.01-.37.02-.67.15-.92.39s-.37.55-.37.94v3.7s-.02.08-.05.11-.07.05-.11.05h-1.2s-.08-.02-.11-.05-.05-.07-.05-.11v-6.37s.02-.08.05-.11.07-.05.11-.05h1.2s.08.02.11.05.05.07.05.11v.59s0,.05.02.06c.01,0,.03,0,.05-.03.37-.57.88-.85,1.53-.85.28,0,.52.06.73.17Z" fill="#1e3446"></path>
    <path d="M122.08,24.88c-.51-.22-.9-.52-1.17-.92-.27-.39-.41-.86-.41-1.39v-.33s.02-.08.05-.11.07-.05.11-.05h1.16s.08.02.11.05.05.07.05.11v.25c0,.4.18.73.54,1,.36.27.85.4,1.47.4.53,0,.93-.11,1.2-.34s.41-.52.41-.88c0-.24-.07-.45-.22-.62-.15-.17-.36-.33-.63-.46-.27-.14-.69-.31-1.24-.52-.62-.23-1.12-.44-1.5-.64s-.7-.47-.96-.82-.39-.77-.39-1.29c0-.77.28-1.37.84-1.82.56-.44,1.3-.67,2.24-.67.65,0,1.23.11,1.73.34s.89.54,1.17.95c.28.41.42.87.42,1.41v.22s-.02.08-.05.11c-.03.03-.07.05-.11.05h-1.18s-.08-.02-.11-.05-.05-.07-.05-.11v-.14c0-.41-.17-.76-.5-1.04s-.8-.43-1.39-.43c-.48,0-.85.1-1.12.3-.27.2-.4.48-.4.85,0,.26.07.48.21.64s.35.32.63.45c.28.14.71.31,1.29.52.62.23,1.11.45,1.48.64.37.19.69.46.95.8.27.34.4.77.4,1.29,0,.78-.29,1.41-.87,1.87-.58.46-1.37.69-2.37.69-.68,0-1.27-.11-1.78-.33Z" fill="#1e3446"></path>
    <path d="M128.28,27.66s-.03-.07-.03-.11v-.94s.01-.08.05-.11.07-.05.11-.05h.01c.36,0,.64-.05.84-.11.2-.07.37-.19.5-.37.13-.18.25-.46.35-.82,0-.02,0-.04,0-.08l-2.16-6.48s-.01-.04-.01-.07c0-.08.05-.12.13-.12h1.28c.1,0,.16.04.18.13l1.31,4.6s.02.04.04.04c.02,0,.03-.01.04-.04l1.31-4.6c.03-.09.09-.13.18-.13h1.24c.05,0,.09.02.11.05s.02.08,0,.14l-2.3,6.88c-.22.62-.43,1.08-.64,1.39-.21.3-.49.52-.86.65-.36.13-.87.2-1.54.2h-.09s-.05-.02-.06-.05Z" fill="#1e3446"></path>
    <path d="M135.45,24.94c-.41-.16-.73-.38-.96-.67-.23-.28-.34-.6-.34-.95v-.12s.02-.08.05-.11c.03-.03.07-.05.11-.05h1.15s.08.02.11.05c.03.03.05.07.05.11v.03c0,.22.12.41.36.57.24.16.54.24.91.24s.63-.07.85-.22.33-.33.33-.54c0-.2-.09-.35-.27-.45-.18-.1-.47-.21-.87-.32l-.5-.16c-.44-.13-.82-.27-1.12-.42-.3-.15-.56-.35-.77-.61-.21-.26-.32-.59-.32-.99,0-.61.24-1.1.72-1.46.48-.36,1.11-.54,1.9-.54.53,0,1,.08,1.4.26.4.17.71.41.93.71s.33.64.33,1.03c0,.04-.01.08-.05.11s-.07.05-.11.05h-1.11s-.08-.02-.11-.05-.05-.07-.05-.11c0-.23-.11-.42-.33-.57-.22-.15-.53-.23-.91-.23-.34,0-.62.06-.83.19-.21.13-.32.3-.32.53,0,.21.1.37.31.48.2.11.55.23,1.03.36l.29.08c.46.14.85.28,1.16.43.32.14.58.34.8.6.22.26.33.59.33,1,0,.62-.24,1.11-.73,1.46s-1.14.53-1.95.53c-.55,0-1.03-.08-1.45-.24Z" fill="#1e3446"></path>
    <path d="M144.34,19.6s-.07.05-.11.05h-1.33s-.07.02-.07.07v3.15c0,.33.07.57.22.72.14.15.37.22.69.22h.39s.08.02.11.05c.03.03.05.07.05.11v.98c0,.1-.05.15-.16.17h-.68c-.69.01-1.2-.1-1.54-.34-.34-.24-.52-.68-.52-1.33v-3.73s-.02-.07-.07-.07h-.75s-.08-.01-.11-.05c-.03-.03-.05-.07-.05-.11v-.92s.01-.08.05-.11c.03-.03.07-.05.11-.05h.75s.07-.02.07-.07v-1.53s.01-.08.05-.11.07-.05.11-.05h1.14s.08.02.11.05c.03.03.05.07.05.11v1.53s.02.07.07.07h1.33s.08.02.11.05.05.07.05.11v.92s-.01.08-.05.11Z" fill="#1e3446"></path>
    <path d="M151.28,21.74v.41c-.01.1-.06.16-.17.16h-4.1s-.06.02-.06.07c.03.29.06.48.12.59.21.63.72.95,1.53.96.59,0,1.06-.24,1.41-.73.04-.05.08-.08.13-.08.03,0,.06.01.09.04l.81.67c.08.06.09.13.04.21-.27.38-.63.68-1.08.89s-.95.31-1.5.31c-.68,0-1.26-.15-1.73-.46-.48-.3-.82-.73-1.04-1.28-.2-.47-.3-1.12-.3-1.96,0-.51.05-.92.16-1.23.18-.61.51-1.09.99-1.45.48-.35,1.07-.53,1.75-.53,1.72,0,2.68.9,2.9,2.69.04.22.05.46.05.73ZM147.52,19.86c-.22.16-.37.39-.45.67-.05.15-.09.34-.1.58-.02.04,0,.07.05.07h2.66s.07-.02.07-.07c-.02-.22-.05-.38-.08-.5-.08-.31-.23-.56-.46-.73s-.52-.26-.87-.26c-.32,0-.59.08-.8.24Z" fill="#1e3446"></path>
    <path d="M161.38,18.92c.38.41.57.97.57,1.69v4.33s-.02.08-.05.11-.07.05-.11.05h-1.19s-.08-.02-.11-.05-.05-.07-.05-.11v-4.02c0-.4-.11-.72-.32-.96-.21-.24-.5-.35-.86-.35s-.65.12-.88.35c-.23.24-.34.55-.34.94v4.03s-.01.08-.05.11c-.03.03-.07.05-.11.05h-1.19s-.08-.02-.11-.05-.05-.07-.05-.11v-4.02c0-.4-.11-.72-.33-.96s-.51-.35-.86-.35c-.33,0-.6.1-.82.29-.21.19-.34.45-.37.78v4.25s-.01.08-.05.11c-.03.03-.07.05-.11.05h-1.2s-.08-.02-.11-.05c-.03-.03-.05-.07-.05-.11v-6.37s.02-.08.05-.11c.03-.03.07-.05.11-.05h1.2s.08.02.11.05c.03.03.05.07.05.11v.43s0,.04.03.05.04,0,.05-.03c.19-.24.43-.42.71-.54.28-.12.6-.18.95-.18.43,0,.8.09,1.12.26.32.17.57.43.75.76.03.04.06.04.09,0,.19-.35.46-.61.8-.77s.72-.25,1.14-.25c.67,0,1.2.2,1.58.61Z" fill="#1e3446"></path>
    <path d="M164.52,24.94c-.41-.16-.73-.38-.96-.67-.23-.28-.34-.6-.34-.95v-.12s.02-.08.05-.11c.03-.03.07-.05.11-.05h1.15s.08.02.11.05c.03.03.05.07.05.11v.03c0,.22.12.41.36.57.24.16.54.24.91.24s.63-.07.85-.22.33-.33.33-.54c0-.2-.09-.35-.27-.45-.18-.1-.47-.21-.87-.32l-.5-.16c-.44-.13-.82-.27-1.12-.42-.3-.15-.56-.35-.77-.61-.21-.26-.32-.59-.32-.99,0-.61.24-1.1.72-1.46.48-.36,1.11-.54,1.9-.54.53,0,1,.08,1.4.26.4.17.71.41.93.71s.33.64.33,1.03c0,.04-.01.08-.05.11s-.07.05-.11.05h-1.11s-.08-.02-.11-.05-.05-.07-.05-.11c0-.23-.11-.42-.33-.57-.22-.15-.53-.23-.91-.23-.34,0-.62.06-.83.19-.21.13-.32.3-.32.53,0,.21.1.37.31.48.2.11.55.23,1.03.36l.29.08c.46.14.85.28,1.16.43.32.14.58.34.8.6.22.26.33.59.33,1,0,.62-.24,1.11-.73,1.46s-1.14.53-1.95.53c-.55,0-1.03-.08-1.45-.24Z" fill="#1e3446"></path>
    <path d="M106.81,36c.89.42,1.33,1.14,1.33,2.16,0,.83-.28,1.46-.83,1.89-.55.43-1.28.65-2.16.65h-3.3s-.08-.02-.11-.05-.05-.07-.05-.11v-8.84s.02-.08.05-.11c.03-.03.07-.05.11-.05h3.19c.95,0,1.68.2,2.2.61.51.41.77,1.03.77,1.86,0,.92-.4,1.55-1.2,1.91-.05.03-.05.05,0,.08ZM103.21,32.92v2.42s.02.07.07.07h1.77c.46,0,.83-.11,1.09-.33.27-.22.4-.53.4-.92s-.13-.72-.4-.95c-.27-.23-.63-.35-1.09-.35h-1.77s-.07.02-.07.07ZM106.23,39.01c.27-.24.4-.58.4-.99s-.14-.76-.41-1c-.27-.24-.64-.36-1.1-.36h-1.84s-.07.02-.07.07v2.59s.02.07.07.07h1.87c.45,0,.81-.12,1.08-.37Z" fill="#1e3446"></path>
    <path d="M109.87,32.84c-.17-.17-.26-.4-.26-.67s.09-.49.26-.67.4-.26.67-.26.49.09.67.26.26.4.26.67-.09.49-.26.67-.4.26-.67.26-.49-.09-.67-.26ZM109.8,40.66s-.05-.07-.05-.11v-6.38s.01-.08.05-.11.07-.05.11-.05h1.2s.08.02.11.05c.03.03.05.07.05.11v6.38s-.02.08-.05.11c-.03.03-.07.05-.11.05h-1.2s-.08-.02-.11-.05Z" fill="#1e3446"></path>
    <path d="M114.07,40.28c-.49-.35-.84-.83-1.04-1.45-.15-.47-.22-.97-.22-1.49,0-.56.07-1.06.21-1.49.2-.61.55-1.09,1.05-1.43.5-.34,1.09-.51,1.79-.51s1.24.17,1.72.51c.48.34.83.81,1.03,1.41.16.42.24.92.24,1.49s-.07,1.05-.22,1.49c-.2.62-.55,1.11-1.03,1.46s-1.07.53-1.74.53-1.28-.17-1.77-.52ZM116.67,39.22c.23-.18.4-.44.5-.77.09-.29.13-.65.13-1.1,0-.47-.04-.84-.13-1.1-.1-.33-.26-.59-.5-.77-.23-.18-.52-.27-.86-.27-.32,0-.6.09-.84.27-.24.18-.41.43-.51.77-.09.31-.13.67-.13,1.1s.04.79.13,1.1c.1.33.26.59.5.77.24.18.53.27.87.27.32,0,.6-.09.83-.27Z" fill="#1e3446"></path>
    <path d="M128.99,34.52c.38.41.57.97.57,1.69v4.33s-.01.08-.05.11-.07.05-.11.05h-1.19s-.08-.02-.11-.05-.05-.07-.05-.11v-4.02c0-.4-.11-.72-.32-.96-.21-.24-.5-.35-.86-.35s-.65.12-.88.35-.34.55-.34.94v4.03s-.02.08-.05.11-.07.05-.11.05h-1.19s-.08-.02-.11-.05-.05-.07-.05-.11v-4.02c0-.4-.11-.72-.33-.96s-.51-.35-.86-.35c-.33,0-.6.1-.82.29-.21.19-.34.45-.37.78v4.25s-.02.08-.05.11-.07.05-.11.05h-1.2s-.08-.02-.11-.05-.05-.07-.05-.11v-6.37s.02-.08.05-.11.07-.05.11-.05h1.2s.08.02.11.05.05.07.05.11v.43s0,.04.03.05c.02,0,.04,0,.05-.03.19-.24.43-.42.71-.54.28-.12.6-.18.95-.18.43,0,.8.09,1.12.26.32.17.57.43.75.76.03.04.06.04.09,0,.19-.35.46-.61.8-.77.34-.17.72-.25,1.14-.25.67,0,1.2.2,1.58.61Z" fill="#1e3446"></path>
    <path d="M136.73,37.34v.41c-.01.1-.07.16-.17.16h-4.1s-.07.02-.07.07c.03.29.07.48.12.59.21.63.72.95,1.53.96.59,0,1.07-.24,1.41-.73.04-.05.08-.08.13-.08.04,0,.06.01.09.04l.81.67c.08.06.09.13.04.21-.27.38-.63.68-1.08.89-.45.21-.95.31-1.5.31-.68,0-1.26-.15-1.73-.46-.47-.3-.82-.73-1.04-1.28-.2-.47-.3-1.12-.3-1.96,0-.51.05-.92.16-1.23.18-.61.5-1.09.99-1.45.49-.35,1.07-.53,1.75-.53,1.72,0,2.69.9,2.9,2.69.04.22.05.46.05.73ZM132.97,35.46c-.21.16-.36.39-.45.67-.05.15-.09.34-.11.58-.02.04,0,.07.05.07h2.66s.07-.02.07-.07c-.02-.22-.05-.38-.08-.5-.08-.31-.23-.56-.47-.73-.23-.17-.52-.26-.87-.26-.32,0-.59.08-.8.24Z" fill="#1e3446"></path>
    <path d="M142.3,31.59s.07-.05.11-.05h1.2s.08.02.11.05c.03.03.05.07.05.11v8.84s-.02.08-.05.11c-.03.03-.07.05-.11.05h-1.2s-.08-.02-.11-.05c-.03-.03-.05-.07-.05-.11v-.39s0-.04-.03-.05-.03,0-.05.03c-.38.45-.89.68-1.5.68s-1.14-.16-1.57-.48-.74-.77-.93-1.35c-.16-.49-.23-1.03-.23-1.64s.07-1.15.22-1.6c.19-.58.5-1.02.93-1.35s.96-.48,1.61-.48c.6,0,1.09.22,1.48.65.02.02.04.02.05.02.02,0,.03-.02.03-.05v-2.84s.01-.08.05-.11ZM142.24,37.35c0-.68-.11-1.2-.33-1.56-.23-.38-.57-.58-.99-.58s-.79.18-1.05.55c-.26.38-.39.92-.39,1.6,0,.61.1,1.11.31,1.5.24.42.61.63,1.11.63.44,0,.79-.21,1.03-.63.2-.36.3-.86.3-1.52Z" fill="#1e3446"></path>
    <path d="M145.6,32.84c-.17-.17-.26-.4-.26-.67s.09-.49.26-.67c.18-.17.4-.26.67-.26s.49.09.67.26c.17.17.26.4.26.67s-.09.49-.26.67c-.18.17-.4.26-.67.26s-.49-.09-.67-.26ZM145.53,40.66s-.05-.07-.05-.11v-6.38s.01-.08.05-.11c.03-.03.07-.05.11-.05h1.2s.08.02.11.05c.03.03.05.07.05.11v6.38s-.02.08-.05.11c-.03.03-.07.05-.11.05h-1.2s-.08-.02-.11-.05Z" fill="#1e3446"></path>
    <path d="M149.77,40.29c-.49-.34-.83-.81-1.02-1.39-.14-.39-.21-.92-.21-1.57s.07-1.14.21-1.54c.18-.58.52-1.03,1.01-1.37.49-.34,1.08-.5,1.75-.5s1.27.17,1.78.51c.51.34.84.77,1.01,1.28.04.14.07.28.09.42v.03c0,.09-.05.14-.14.16l-1.18.17h-.03c-.08,0-.13-.04-.16-.13,0-.04,0-.08-.01-.1-.02-.07-.04-.13-.05-.18-.08-.24-.24-.44-.47-.6-.23-.16-.51-.24-.84-.24s-.61.09-.84.26-.39.4-.46.7c-.09.28-.13.67-.13,1.16s.04.87.12,1.16c.09.3.24.55.47.73s.51.27.85.27.62-.08.86-.26c.24-.17.39-.4.47-.69,0-.02.01-.04.01-.07,0,0,.01-.02.01-.04.03-.1.09-.15.18-.13l1.18.18s.08.03.11.06.04.07.03.12c-.03.14-.05.24-.06.3-.17.56-.5,1-1.01,1.33-.51.33-1.1.49-1.78.49s-1.25-.17-1.74-.52Z" fill="#1e3446"></path>
    <path d="M155.86,32.84c-.18-.17-.26-.4-.26-.67s.09-.49.26-.67.4-.26.67-.26.49.09.67.26.26.4.26.67-.09.49-.26.67-.4.26-.67.26-.49-.09-.67-.26ZM155.78,40.66s-.05-.07-.05-.11v-6.38s.01-.08.05-.11.07-.05.11-.05h1.2s.08.02.11.05.05.07.05.11v6.38s-.01.08-.05.11-.07.05-.11.05h-1.2s-.08-.02-.11-.05Z" fill="#1e3446"></path>
    <path d="M163.88,34.54c.42.42.63.99.63,1.71v4.29s-.01.08-.05.11-.07.05-.11.05h-1.2s-.08-.02-.11-.05-.05-.07-.05-.11v-3.98c0-.4-.11-.73-.34-.98s-.53-.37-.9-.37-.68.12-.91.37c-.23.24-.35.57-.35.97v3.99s-.01.08-.05.11c-.03.03-.07.05-.11.05h-1.2s-.08-.02-.11-.05c-.03-.03-.05-.07-.05-.11v-6.37s.02-.08.05-.11c.03-.03.07-.05.11-.05h1.2s.08.02.11.05c.03.03.05.07.05.11v.42s0,.04.03.05.03,0,.04-.03c.36-.47.9-.71,1.62-.71s1.27.21,1.69.63Z" fill="#1e3446"></path>
    <path d="M171.72,37.34v.41c-.01.1-.07.16-.17.16h-4.1s-.07.02-.07.07c.03.29.07.48.12.59.21.63.72.95,1.53.96.59,0,1.07-.24,1.41-.73.04-.05.08-.08.13-.08.04,0,.06.01.09.04l.81.67c.08.06.09.13.04.21-.27.38-.63.68-1.08.89-.45.21-.95.31-1.5.31-.68,0-1.26-.15-1.73-.46-.47-.3-.82-.73-1.04-1.28-.2-.47-.3-1.12-.3-1.96,0-.51.05-.92.16-1.23.18-.61.5-1.09.99-1.45.49-.35,1.07-.53,1.75-.53,1.72,0,2.69.9,2.9,2.69.04.22.05.46.05.73ZM167.96,35.46c-.21.16-.36.39-.45.67-.05.15-.09.34-.11.58-.02.04,0,.07.05.07h2.66s.07-.02.07-.07c-.02-.22-.05-.38-.08-.5-.08-.31-.23-.56-.47-.73-.23-.17-.52-.26-.87-.26-.32,0-.59.08-.8.24Z" fill="#1e3446"></path>
  </g>
  <g>
    <path d="M7.41,40.77h0c-4.09,0-7.41-3.32-7.41-7.41V14.84c0-2.05,1.66-3.7,3.71-3.7s3.7,1.66,3.7,3.7v25.94Z" fill="#1e3446"></path>
    <path d="M80.28,40.77h0c-4.09,0-7.41-3.32-7.41-7.41V14.84c0-2.05,1.66-3.7,3.71-3.7s3.7,1.66,3.7,3.7v25.94Z" fill="#1e3446"></path>
    <path d="M34.58,40.77h0c-2.05,0-3.7-1.66-3.7-3.7V11.13c4.09,0,7.41,3.32,7.41,7.41v18.53c0,2.05-1.66,3.7-3.7,3.7" fill="#1e3446"></path>
    <path d="M65.46,40.77h0c-2.05,0-3.7-1.66-3.7-3.7V3.71C61.75,1.66,63.41,0,65.46,0s3.7,1.66,3.7,3.7v33.36c0,2.05-1.66,3.7-3.7,3.7" fill="#1e3446"></path>
    <path d="M45.7,40.77h0c-2.05,0-3.7-1.66-3.7-3.7V14.84c0-2.05,1.66-3.7,3.7-3.7s3.7,1.66,3.7,3.7v22.23c0,2.05-1.66,3.7-3.7,3.7" fill="#1e3446"></path>
    <path d="M55.58,40.77h0c-2.04,0-3.7-1.67-3.7-3.7s1.67-3.71,3.7-3.71,3.7,1.67,3.7,3.71-1.67,3.7-3.7,3.7" fill="#e13c2e"></path>
    <path d="M88.62,39.87c.49.52,1.02.89,1.53.89V14.97c0-2.03-1.56-3.8-3.59-3.86-2.1-.06-3.82,1.62-3.82,3.7v25.93c.64,0,1.25-.4,1.8-.95,1.14-1.16,2.97-1.12,4.08.06" fill="#1e3446"></path>
    <path d="M45.7,7.41h0c-2.04,0-3.7-1.67-3.7-3.7s1.67-3.71,3.7-3.71,3.7,1.67,3.7,3.71-1.67,3.7-3.7,3.7" fill="#1e3446"></path>
    <path d="M15.76,39.89c.49.52,1.02.89,1.53.89V14.99c0-2.03-1.56-3.8-3.59-3.86-2.1-.06-3.82,1.62-3.82,3.7v25.93c.64,0,1.25-.4,1.8-.95,1.14-1.16,2.97-1.12,4.08.06" fill="#1e3446"></path>
    <path d="M22.53,12.02c-.49-.52-1.02-.89-1.53-.89v25.78c0,2.03,1.56,3.8,3.59,3.86,2.1.06,3.82-1.62,3.82-3.7V11.14c-.64,0-1.25.4-1.8.95-1.14,1.16-2.97,1.12-4.08-.06" fill="#1e3446"></path>
  </g>
</svg>